<svg width="233" height="317" viewBox="0 0 233 317" fill="none" xmlns="http://www.w3.org/2000/svg">
<path d="M13.8059 167.862V193.073C13.8059 195.594 14.4262 197.535 15.6667 198.895C16.9072 200.256 18.728 200.936 21.129 200.936C23.5301 200.936 25.3708 200.256 26.6514 198.895C27.9319 197.535 28.5722 195.594 28.5722 193.073V167.862H38.8366V193.013C38.8366 196.774 38.0363 199.956 36.4356 202.557C34.8349 205.158 32.674 207.119 29.9528 208.439C27.2717 209.76 24.2704 210.42 20.949 210.42C17.6275 210.42 14.6463 209.78 12.0051 208.499C9.40402 207.179 7.34314 205.218 5.82249 202.617C4.30184 199.976 3.54151 196.774 3.54151 193.013V167.862H13.8059ZM83.7405 210H73.4761L56.3088 184.009V210H46.0444V167.862H56.3088L73.4761 193.973V167.862H83.7405V210ZM101.445 167.862V210H91.1809V167.862H101.445ZM107.143 188.871C107.143 184.709 108.043 181.008 109.844 177.766C111.645 174.485 114.146 171.944 117.347 170.143C120.589 168.302 124.25 167.382 128.332 167.382C133.334 167.382 137.616 168.702 141.178 171.343C144.739 173.985 147.12 177.586 148.321 182.148H137.036C136.195 180.387 134.995 179.047 133.434 178.126C131.914 177.206 130.173 176.746 128.212 176.746C125.051 176.746 122.49 177.846 120.529 180.047C118.568 182.248 117.587 185.189 117.587 188.871C117.587 192.553 118.568 195.494 120.529 197.695C122.49 199.896 125.051 200.996 128.212 200.996C130.173 200.996 131.914 200.536 133.434 199.616C134.995 198.695 136.195 197.355 137.036 195.594H148.321C147.12 200.156 144.739 203.757 141.178 206.398C137.616 209 133.334 210.3 128.332 210.3C124.25 210.3 120.589 209.4 117.347 207.599C114.146 205.758 111.645 203.217 109.844 199.976C108.043 196.734 107.143 193.033 107.143 188.871ZM180.838 202.557H165.111L162.59 210H151.845L167.092 167.862H178.977L194.223 210H183.359L180.838 202.557ZM178.197 194.633L172.974 179.207L167.812 194.633H178.197ZM230.977 181.428C230.977 183.869 230.417 186.11 229.297 188.151C228.176 190.152 226.455 191.772 224.134 193.013C221.813 194.253 218.932 194.874 215.491 194.874H209.128V210H198.864V167.862H215.491C218.852 167.862 221.693 168.442 224.014 169.603C226.335 170.763 228.076 172.364 229.237 174.405C230.397 176.446 230.977 178.787 230.977 181.428ZM214.71 186.71C216.671 186.71 218.132 186.25 219.092 185.329C220.053 184.409 220.533 183.109 220.533 181.428C220.533 179.747 220.053 178.447 219.092 177.526C218.132 176.606 216.671 176.146 214.71 176.146H209.128V186.71H214.71Z" fill="#7D1F2A"/>
<path d="M21.6915 256.702C19.7923 256.702 18.0903 256.394 16.5857 255.777C15.0811 255.161 13.8725 254.248 12.9599 253.04C12.0719 251.831 11.6033 250.376 11.5539 248.674H18.2877C18.3863 249.636 18.7193 250.376 19.2866 250.894C19.8539 251.387 20.5939 251.634 21.5065 251.634C22.4438 251.634 23.1838 251.424 23.7264 251.005C24.2691 250.561 24.5404 249.956 24.5404 249.192C24.5404 248.55 24.3184 248.02 23.8744 247.601C23.4551 247.181 22.9248 246.836 22.2835 246.565C21.6668 246.293 20.7789 245.985 19.6196 245.64C17.9423 245.122 16.5734 244.604 15.5128 244.086C14.4521 243.568 13.5395 242.803 12.7749 241.792C12.0102 240.781 11.6279 239.461 11.6279 237.833C11.6279 235.416 12.5036 233.529 14.2548 232.172C16.0061 230.791 18.2877 230.1 21.0995 230.1C23.9607 230.1 26.267 230.791 28.0182 232.172C29.7695 233.529 30.7068 235.428 30.8301 237.87H23.9854C23.9361 237.032 23.6278 236.378 23.0605 235.909C22.4931 235.416 21.7655 235.169 20.8775 235.169C20.1129 235.169 19.4963 235.379 19.0276 235.798C18.559 236.193 18.3247 236.773 18.3247 237.537C18.3247 238.376 18.7193 239.029 19.5086 239.498C20.2979 239.967 21.5312 240.472 23.2084 241.015C24.8857 241.582 26.2423 242.125 27.2783 242.643C28.3389 243.161 29.2515 243.913 30.0162 244.9C30.7808 245.886 31.1631 247.157 31.1631 248.711C31.1631 250.191 30.7808 251.535 30.0162 252.744C29.2762 253.952 28.1909 254.914 26.7603 255.629C25.3297 256.345 23.6401 256.702 21.6915 256.702ZM38.2385 233.652C37.1285 233.652 36.2159 233.332 35.5006 232.69C34.81 232.024 34.4646 231.21 34.4646 230.248C34.4646 229.262 34.81 228.448 35.5006 227.807C36.2159 227.141 37.1285 226.808 38.2385 226.808C39.3238 226.808 40.2117 227.141 40.9024 227.807C41.6177 228.448 41.9753 229.262 41.9753 230.248C41.9753 231.21 41.6177 232.024 40.9024 232.69C40.2117 233.332 39.3238 233.652 38.2385 233.652ZM41.3834 235.798V256.443H35.0566V235.798H41.3834ZM54.3669 256.739C52.5663 256.739 50.9631 256.431 49.5571 255.814C48.1512 255.198 47.0412 254.359 46.2273 253.298C45.4133 252.213 44.957 251.005 44.8583 249.673H51.1111C51.1851 250.388 51.518 250.968 52.11 251.412C52.702 251.856 53.4296 252.078 54.2929 252.078C55.0822 252.078 55.6865 251.93 56.1059 251.634C56.5498 251.313 56.7718 250.906 56.7718 250.413C56.7718 249.821 56.4635 249.389 55.8469 249.118C55.2302 248.822 54.2313 248.501 52.85 248.156C51.37 247.81 50.1368 247.453 49.1501 247.083C48.1635 246.688 47.3126 246.084 46.5972 245.27C45.8819 244.431 45.5243 243.309 45.5243 241.903C45.5243 240.719 45.8449 239.646 46.4863 238.684C47.1522 237.697 48.1142 236.921 49.3721 236.353C50.6547 235.786 52.1717 235.502 53.9229 235.502C56.5128 235.502 58.5477 236.144 60.0277 237.426C61.5323 238.709 62.3956 240.411 62.6176 242.532H56.7718C56.6732 241.817 56.3525 241.249 55.8099 240.83C55.2919 240.411 54.6012 240.201 53.7379 240.201C52.998 240.201 52.4307 240.349 52.036 240.645C51.6414 240.916 51.444 241.299 51.444 241.792C51.444 242.384 51.7524 242.828 52.369 243.124C53.0103 243.42 53.9969 243.716 55.3289 244.012C56.8582 244.407 58.1038 244.801 59.0657 245.196C60.0277 245.566 60.8663 246.182 61.5816 247.046C62.3216 247.884 62.7039 249.019 62.7286 250.45C62.7286 251.658 62.3833 252.744 61.6926 253.705C61.0266 254.643 60.0524 255.383 58.7697 255.925C57.5118 256.468 56.0442 256.739 54.3669 256.739ZM78.1058 251.079V256.443H74.8869C72.593 256.443 70.8047 255.888 69.5221 254.778C68.2395 253.644 67.5982 251.806 67.5982 249.266V241.052H65.0823V235.798H67.5982V230.766H73.9249V235.798H78.0688V241.052H73.9249V249.34C73.9249 249.956 74.0729 250.4 74.3689 250.672C74.6649 250.943 75.1582 251.079 75.8489 251.079H78.1058ZM101.091 245.788C101.091 246.38 101.054 246.996 100.98 247.638H86.6617C86.7603 248.92 87.1673 249.907 87.8826 250.598C88.6226 251.264 89.5229 251.597 90.5835 251.597C92.1621 251.597 93.2597 250.931 93.8764 249.599H100.61C100.265 250.955 99.6358 252.176 98.7232 253.261C97.8352 254.347 96.7129 255.198 95.3563 255.814C93.9997 256.431 92.4827 256.739 90.8055 256.739C88.7829 256.739 86.9823 256.308 85.4037 255.444C83.8251 254.581 82.5918 253.348 81.7039 251.745C80.8159 250.141 80.3719 248.267 80.3719 246.121C80.3719 243.975 80.8036 242.1 81.6669 240.497C82.5548 238.894 83.7881 237.66 85.3667 236.797C86.9453 235.934 88.7582 235.502 90.8055 235.502C92.8034 235.502 94.5793 235.922 96.1333 236.76C97.6872 237.599 98.8958 238.795 99.7591 240.349C100.647 241.903 101.091 243.716 101.091 245.788ZM94.6163 244.123C94.6163 243.038 94.2463 242.174 93.5064 241.533C92.7664 240.892 91.8414 240.571 90.7315 240.571C89.6709 240.571 88.7706 240.879 88.0306 241.496C87.3153 242.113 86.8713 242.988 86.6987 244.123H94.6163ZM130.772 235.576C133.337 235.576 135.372 236.353 136.876 237.907C138.406 239.461 139.17 241.619 139.17 244.382V256.443H132.881V245.233C132.881 243.901 132.523 242.877 131.808 242.162C131.117 241.422 130.155 241.052 128.922 241.052C127.688 241.052 126.714 241.422 125.999 242.162C125.308 242.877 124.963 243.901 124.963 245.233V256.443H118.673V245.233C118.673 243.901 118.315 242.877 117.6 242.162C116.91 241.422 115.948 241.052 114.714 241.052C113.481 241.052 112.507 241.422 111.791 242.162C111.101 242.877 110.755 243.901 110.755 245.233V256.443H104.429V235.798H110.755V238.388C111.397 237.525 112.235 236.847 113.271 236.353C114.307 235.835 115.479 235.576 116.786 235.576C118.34 235.576 119.721 235.909 120.93 236.575C122.163 237.241 123.125 238.191 123.816 239.424C124.531 238.289 125.506 237.364 126.739 236.649C127.972 235.934 129.316 235.576 130.772 235.576ZM142.337 246.084C142.337 243.963 142.732 242.1 143.521 240.497C144.335 238.894 145.433 237.66 146.814 236.797C148.195 235.934 149.737 235.502 151.439 235.502C152.894 235.502 154.164 235.798 155.25 236.39C156.36 236.982 157.21 237.759 157.802 238.721V235.798H164.129V256.443H157.802V253.52C157.186 254.482 156.323 255.259 155.213 255.851C154.127 256.443 152.857 256.739 151.402 256.739C149.724 256.739 148.195 256.308 146.814 255.444C145.433 254.556 144.335 253.311 143.521 251.708C142.732 250.08 142.337 248.205 142.337 246.084ZM157.802 246.121C157.802 244.542 157.358 243.297 156.471 242.384C155.607 241.471 154.547 241.015 153.289 241.015C152.031 241.015 150.958 241.471 150.07 242.384C149.206 243.272 148.775 244.505 148.775 246.084C148.775 247.662 149.206 248.92 150.07 249.858C150.958 250.77 152.031 251.227 153.289 251.227C154.547 251.227 155.607 250.77 156.471 249.858C157.358 248.945 157.802 247.699 157.802 246.121ZM175.289 246.084C175.289 243.963 175.683 242.1 176.473 240.497C177.287 238.894 178.384 237.66 179.766 236.797C181.147 235.934 182.689 235.502 184.39 235.502C185.747 235.502 186.98 235.786 188.09 236.353C189.225 236.921 190.113 237.685 190.754 238.647V229.065H197.081V256.443H190.754V253.483C190.162 254.47 189.311 255.259 188.201 255.851C187.116 256.443 185.846 256.739 184.39 256.739C182.689 256.739 181.147 256.308 179.766 255.444C178.384 254.556 177.287 253.311 176.473 251.708C175.683 250.08 175.289 248.205 175.289 246.084ZM190.754 246.121C190.754 244.542 190.31 243.297 189.422 242.384C188.559 241.471 187.498 241.015 186.24 241.015C184.982 241.015 183.909 241.471 183.022 242.384C182.158 243.272 181.727 244.505 181.727 246.084C181.727 247.662 182.158 248.92 183.022 249.858C183.909 250.77 184.982 251.227 186.24 251.227C187.498 251.227 188.559 250.77 189.422 249.858C190.31 248.945 190.754 247.699 190.754 246.121ZM221.119 245.788C221.119 246.38 221.082 246.996 221.008 247.638H206.69C206.788 248.92 207.195 249.907 207.911 250.598C208.651 251.264 209.551 251.597 210.612 251.597C212.19 251.597 213.288 250.931 213.905 249.599H220.638C220.293 250.955 219.664 252.176 218.751 253.261C217.863 254.347 216.741 255.198 215.384 255.814C214.028 256.431 212.511 256.739 210.834 256.739C208.811 256.739 207.01 256.308 205.432 255.444C203.853 254.581 202.62 253.348 201.732 251.745C200.844 250.141 200.4 248.267 200.4 246.121C200.4 243.975 200.832 242.1 201.695 240.497C202.583 238.894 203.816 237.66 205.395 236.797C206.973 235.934 208.786 235.502 210.834 235.502C212.832 235.502 214.607 235.922 216.161 236.76C217.715 237.599 218.924 238.795 219.787 240.349C220.675 241.903 221.119 243.716 221.119 245.788ZM214.644 244.123C214.644 243.038 214.275 242.174 213.535 241.533C212.795 240.892 211.87 240.571 210.76 240.571C209.699 240.571 208.799 240.879 208.059 241.496C207.343 242.113 206.899 242.988 206.727 244.123H214.644Z" fill="#7D1F2A"/>
<path d="M30.2704 295.963H19.6274L17.9213 301H10.65L20.9679 272.483H29.0111L39.3291 301H31.9765L30.2704 295.963ZM28.483 290.601L24.9489 280.161L21.4554 290.601H28.483ZM52.6655 294.5L57.5808 278.333H64.974L56.9308 301H48.3596L40.3164 278.333H47.7502L52.6655 294.5ZM66.5166 289.626C66.5166 287.297 66.9499 285.252 67.8165 283.492C68.7102 281.732 69.9154 280.378 71.4319 279.43C72.9485 278.482 74.641 278.008 76.5097 278.008C78.1075 278.008 79.5021 278.333 80.6937 278.983C81.9124 279.633 82.8467 280.486 83.4966 281.542V278.333H90.443V301H83.4966V297.791C82.8196 298.847 81.8718 299.7 80.6531 300.35C79.4615 301 78.0668 301.325 76.469 301.325C74.6275 301.325 72.9485 300.851 71.4319 299.903C69.9154 298.928 68.7102 297.561 67.8165 295.8C66.9499 294.013 66.5166 291.955 66.5166 289.626ZM83.4966 289.666C83.4966 287.933 83.0092 286.566 82.0343 285.564C81.0864 284.562 79.9219 284.061 78.5408 284.061C77.1596 284.061 75.9816 284.562 75.0066 285.564C74.0588 286.539 73.5849 287.893 73.5849 289.626C73.5849 291.359 74.0588 292.74 75.0066 293.769C75.9816 294.771 77.1596 295.272 78.5408 295.272C79.9219 295.272 81.0864 294.771 82.0343 293.769C83.0092 292.767 83.4966 291.4 83.4966 289.666ZM102.415 270.94V301H95.4684V270.94H102.415ZM110.942 275.977C109.724 275.977 108.722 275.625 107.936 274.921C107.178 274.189 106.799 273.296 106.799 272.24C106.799 271.156 107.178 270.263 107.936 269.559C108.722 268.827 109.724 268.462 110.942 268.462C112.134 268.462 113.109 268.827 113.867 269.559C114.652 270.263 115.045 271.156 115.045 272.24C115.045 273.296 114.652 274.189 113.867 274.921C113.109 275.625 112.134 275.977 110.942 275.977ZM114.395 278.333V301H107.449V278.333H114.395ZM118.048 289.626C118.048 287.297 118.481 285.252 119.348 283.492C120.241 281.732 121.447 280.378 122.963 279.43C124.48 278.482 126.172 278.008 128.041 278.008C129.639 278.008 131.033 278.333 132.225 278.983C133.444 279.633 134.378 280.486 135.028 281.542V278.333H141.974V301H135.028V297.791C134.351 298.847 133.403 299.7 132.184 300.35C130.993 301 129.598 301.325 128 301.325C126.159 301.325 124.48 300.851 122.963 299.903C121.447 298.928 120.241 297.561 119.348 295.8C118.481 294.013 118.048 291.955 118.048 289.626ZM135.028 289.666C135.028 287.933 134.54 286.566 133.566 285.564C132.618 284.562 131.453 284.061 130.072 284.061C128.691 284.061 127.513 284.562 126.538 285.564C125.59 286.539 125.116 287.893 125.116 289.626C125.116 291.359 125.59 292.74 126.538 293.769C127.513 294.771 128.691 295.272 130.072 295.272C131.453 295.272 132.618 294.771 133.566 293.769C134.54 292.767 135.028 291.4 135.028 289.666ZM156.871 295.394C158.658 295.394 159.863 294.528 160.486 292.794H167.879C167.365 295.096 166.336 296.978 164.792 298.441C163.248 299.903 161.326 300.81 159.024 301.162V302.666C160.432 302.666 161.664 303.045 162.72 303.803C163.777 304.588 164.305 305.753 164.305 307.296C164.305 308.84 163.749 310.005 162.639 310.79C161.529 311.602 160.202 312.009 158.658 312.009H152.402V308.19H157.724C158.265 308.19 158.672 308.109 158.943 307.946C159.213 307.784 159.349 307.513 159.349 307.134C159.349 306.755 159.213 306.484 158.943 306.321C158.672 306.186 158.265 306.118 157.724 306.118H154.84V301.162C152.05 300.729 149.816 299.497 148.137 297.466C146.458 295.408 145.618 292.808 145.618 289.666C145.618 287.31 146.092 285.252 147.04 283.492C148.015 281.732 149.356 280.378 151.062 279.43C152.795 278.482 154.772 278.008 156.993 278.008C159.836 278.008 162.206 278.753 164.102 280.242C166.024 281.732 167.284 283.83 167.879 286.539H160.486C159.863 284.805 158.658 283.939 156.871 283.939C155.598 283.939 154.582 284.44 153.824 285.442C153.066 286.417 152.687 287.825 152.687 289.666C152.687 291.508 153.066 292.93 153.824 293.932C154.582 294.907 155.598 295.394 156.871 295.394ZM170.214 289.626C170.214 287.297 170.647 285.252 171.514 283.492C172.407 281.732 173.613 280.378 175.129 279.43C176.646 278.482 178.338 278.008 180.207 278.008C181.805 278.008 183.199 278.333 184.391 278.983C185.61 279.633 186.544 280.486 187.194 281.542V278.333H194.14V301H187.194V297.791C186.517 298.847 185.569 299.7 184.35 300.35C183.159 301 181.764 301.325 180.166 301.325C178.325 301.325 176.646 300.851 175.129 299.903C173.613 298.928 172.407 297.561 171.514 295.8C170.647 294.013 170.214 291.955 170.214 289.626ZM187.194 289.666C187.194 287.933 186.706 286.566 185.731 285.564C184.784 284.562 183.619 284.061 182.238 284.061C180.857 284.061 179.679 284.562 178.704 285.564C177.756 286.539 177.282 287.893 177.282 289.626C177.282 291.359 177.756 292.74 178.704 293.769C179.679 294.771 180.857 295.272 182.238 295.272C183.619 295.272 184.784 294.771 185.731 293.769C186.706 292.767 187.194 291.4 187.194 289.666ZM174.885 276.424C175.535 272.416 177.404 270.412 180.491 270.412C181.087 270.412 181.602 270.506 182.035 270.696C182.495 270.858 183.05 271.116 183.7 271.468C184.188 271.739 184.581 271.942 184.878 272.077C185.176 272.185 185.488 272.24 185.813 272.24C186.815 272.24 187.397 271.63 187.559 270.412H191.134C190.484 274.42 188.616 276.424 185.528 276.424C184.933 276.424 184.404 276.342 183.944 276.18C183.511 275.99 182.969 275.72 182.319 275.368C181.832 275.097 181.439 274.907 181.141 274.799C180.843 274.663 180.532 274.596 180.207 274.596C179.205 274.596 178.609 275.205 178.419 276.424H174.885ZM209.484 301.325C207.263 301.325 205.259 300.851 203.472 299.903C201.711 298.955 200.317 297.601 199.287 295.841C198.285 294.081 197.784 292.023 197.784 289.666C197.784 287.337 198.299 285.293 199.328 283.533C200.357 281.745 201.765 280.378 203.553 279.43C205.34 278.482 207.344 278.008 209.565 278.008C211.786 278.008 213.79 278.482 215.577 279.43C217.364 280.378 218.772 281.745 219.802 283.533C220.831 285.293 221.345 287.337 221.345 289.666C221.345 291.995 220.817 294.054 219.761 295.841C218.732 297.601 217.31 298.955 215.496 299.903C213.708 300.851 211.704 301.325 209.484 301.325ZM209.484 295.313C210.811 295.313 211.934 294.825 212.855 293.851C213.803 292.876 214.277 291.481 214.277 289.666C214.277 287.852 213.817 286.457 212.896 285.482C212.002 284.507 210.892 284.02 209.565 284.02C208.211 284.02 207.087 284.507 206.193 285.482C205.3 286.43 204.853 287.825 204.853 289.666C204.853 291.481 205.286 292.876 206.153 293.851C207.046 294.825 208.157 295.313 209.484 295.313Z" fill="#7D1F2A"/>
<path d="M89.2572 95.2917C94.3746 90.0955 99.2324 85.15 104.256 80.0352C99.753 78.3996 95.2612 77.1022 91.0559 75.1779C78.6234 69.4891 69.6875 60.1601 64.5279 47.5655C62.8455 43.4589 62.1572 38.7496 61.9542 34.2733C61.5626 25.6355 61.8399 16.9673 61.8399 7.03127C74.2366 10.4895 83.9368 18.1119 95.304 22.5272C98.9012 16.3269 102.494 10.0199 106.201 3.78087C109.115 -1.1231 111.597 -1.17798 114.744 3.64093C122.545 15.5865 130.26 27.5882 138.019 39.5609C138.931 40.9682 139.906 42.3349 142.238 45.7526C145.663 41.4971 148.328 37.5036 151.664 34.1858C158.301 27.585 165.481 27.9476 172.238 34.4974C174.562 36.7501 177.298 38.5769 180.876 41.4156C181.089 42.9975 182.122 45.537 177.061 46.8409C172.45 48.029 170.863 52.4705 170.906 57.7664C171.102 81.7744 156.188 101.158 133.654 106.053C127.597 107.369 121.149 106.788 114.929 107.5C112.462 107.783 109.203 108.511 107.883 110.241C100.181 120.34 90.4807 124.658 77.8777 122.313C75.9049 121.946 73.7368 122.563 71.793 122.127C70.1746 121.764 68.1364 120.85 67.4525 119.561C66.9667 118.645 68.0445 116.324 69.0769 115.27C75.6159 108.595 82.3368 102.098 89.2572 95.2917ZM70.1967 42.6383C77.8689 61.1913 91.6151 71.403 111.689 73.1598C113.418 73.3111 115.694 74.4842 116.453 75.8732C116.964 76.8081 115.63 79.3344 114.472 80.5067C106.466 88.6102 98.3051 96.5607 90.1604 104.526C86.9471 107.669 83.648 110.724 79.5238 114.639C87.3646 115.442 93.3623 116.126 97.8188 109.878C103.466 101.961 110.982 99.5784 121.047 99.8905C146.045 100.666 163.135 83.5323 163.726 58.602C163.87 52.5298 163.51 46.6175 169.703 43.1815C164.151 35.1767 161.195 34.8689 154.637 41.2566C151.47 44.3413 148.095 47.2514 145.232 50.5976C142.318 54.0016 139.662 53.8681 135.914 51.8943C119.229 43.1101 102.404 34.593 85.62 25.9989C79.8162 23.0272 73.9835 20.1119 68.164 17.1709C67.5881 17.4437 67.0123 17.7164 66.4365 17.9892C67.6131 25.9482 68.7897 33.9071 70.1967 42.6383ZM117.105 20.4574C115.004 17.3318 112.902 14.2062 110.375 10.449C107.329 16.1409 104.735 20.9867 101.938 26.2114C110.995 30.8458 119.301 35.0958 127.606 39.3458C127.937 39.0071 128.269 38.6685 128.6 38.3298C124.895 32.5823 121.189 26.8348 117.105 20.4574Z" fill="#7D1F2A"/>
</svg>
