<svg width="121" height="124" viewBox="0 0 121 124" fill="none" xmlns="http://www.w3.org/2000/svg">
<path d="M28.2572 95.6316C33.3746 90.4354 38.2324 85.4899 43.2564 80.375C38.753 78.7394 34.2612 77.442 30.0559 75.5178C17.6234 69.829 8.68748 60.4999 3.52786 47.9054C1.8455 43.7988 1.15718 39.0894 0.954212 34.6131C0.562554 25.9753 0.839936 17.3071 0.839936 7.37111C13.2366 10.8293 22.9368 18.4517 34.304 22.867C37.9012 16.6667 41.494 10.3597 45.2012 4.12072C48.1151 -0.783257 50.5969 -0.838141 53.7439 3.98078C61.5447 15.9264 69.2597 27.9281 77.0192 39.9008C77.9312 41.308 78.9058 42.6747 81.2382 46.0924C84.6633 41.837 87.3279 37.8434 90.664 34.5256C97.3013 27.9248 104.481 28.2875 111.238 34.8373C113.562 37.0899 116.298 38.9167 119.876 41.7554C120.089 43.3373 121.122 45.8769 116.061 47.1807C111.45 48.3688 109.863 52.8104 109.906 58.1063C110.102 82.1143 95.1882 101.498 72.6538 106.393C66.5967 107.709 60.1491 107.127 53.9292 107.84C51.4621 108.123 48.2032 108.851 46.8835 110.581C39.181 120.68 29.4807 124.998 16.8777 122.653C14.9049 122.286 12.7368 122.902 10.793 122.467C9.17458 122.104 7.13641 121.19 6.45251 119.901C5.96666 118.984 7.04448 116.664 8.07695 115.61C14.6159 108.935 21.3368 102.438 28.2572 95.6316ZM9.1967 42.9781C16.8689 61.5311 30.6151 71.7428 50.6895 73.4997C52.4176 73.6509 54.694 74.824 55.4533 76.2131C55.9643 77.1479 54.6301 79.6743 53.472 80.8465C45.4662 88.95 37.3051 96.9005 29.1604 104.866C25.9471 108.009 22.648 111.063 18.5238 114.979C26.3646 115.782 32.3623 116.466 36.8188 110.218C42.4662 102.301 49.9815 99.9182 60.0469 100.23C85.0446 101.006 102.135 83.8722 102.726 58.9418C102.87 52.8696 102.51 46.9573 108.703 43.5213C103.151 35.5166 100.195 35.2087 93.6371 41.5964C90.4702 44.6811 87.0955 47.5913 84.2316 50.9374C81.3182 54.3415 78.6625 54.208 74.9136 52.2342C58.2292 43.4499 41.4042 34.9329 24.62 26.3388C18.8162 23.367 12.9835 20.4518 7.16399 17.5107C6.58815 17.7835 6.0123 18.0563 5.43646 18.329C6.6131 26.288 7.78975 34.247 9.1967 42.9781ZM56.1054 20.7973C54.0036 17.6716 51.9018 14.546 49.3753 10.7889C46.3287 16.4807 43.735 21.3265 40.9384 26.5512C49.9952 31.1857 58.3007 35.4357 66.6062 39.6857C66.9375 39.347 67.2688 39.0083 67.6 38.6697C63.8947 32.9222 60.1894 27.1747 56.1054 20.7973Z" fill="white"/>
</svg>
