<svg width="121" height="124" viewBox="0 0 121 124" fill="none" xmlns="http://www.w3.org/2000/svg">
<path d="M28.2572 95.9499C33.3746 90.7537 38.2324 85.8082 43.2564 80.6934C38.753 79.0578 34.2612 77.7604 30.0559 75.8362C17.6234 70.1474 8.68748 60.8183 3.52786 48.2237C1.8455 44.1171 1.15718 39.4078 0.954212 34.9315C0.562554 26.2937 0.839936 17.6255 0.839936 7.68947C13.2366 11.1477 22.9368 18.7701 34.304 23.1854C37.9012 16.9851 41.494 10.6781 45.2012 4.43908C48.1151 -0.464897 50.5969 -0.519782 53.7439 4.29914C61.5447 16.2447 69.2597 28.2464 77.0192 40.2191C77.9312 41.6264 78.9058 42.9931 81.2382 46.4108C84.6633 42.1553 87.3279 38.1618 90.664 34.844C97.3013 28.2432 104.481 28.6058 111.238 35.1556C113.562 37.4083 116.298 39.2351 119.876 42.0738C120.089 43.6557 121.122 46.1952 116.061 47.4991C111.45 48.6872 109.863 53.1287 109.906 58.4246C110.102 82.4326 95.1882 101.817 72.6538 106.711C66.5967 108.027 60.1491 107.446 53.9292 108.158C51.4621 108.441 48.2032 109.169 46.8835 110.9C39.181 120.998 29.4807 125.316 16.8777 122.971C14.9049 122.604 12.7368 123.221 10.793 122.785C9.17458 122.422 7.13641 121.509 6.45251 120.219C5.96666 119.303 7.04448 116.982 8.07695 115.928C14.6159 109.253 21.3368 102.756 28.2572 95.9499ZM9.1967 43.2965C16.8689 61.8495 30.6151 72.0612 50.6895 73.818C52.4176 73.9693 54.694 75.1424 55.4533 76.5314C55.9643 77.4663 54.6301 79.9927 53.472 81.1649C45.4662 89.2684 37.3051 97.2189 29.1604 105.184C25.9471 108.327 22.648 111.382 18.5238 115.297C26.3646 116.1 32.3623 116.784 36.8188 110.536C42.4662 102.619 49.9815 100.237 60.0469 100.549C85.0446 101.324 102.135 84.1905 102.726 59.2602C102.87 53.188 102.51 47.2757 108.703 43.8397C103.151 35.8349 100.195 35.5271 93.6371 41.9148C90.4702 44.9995 87.0955 47.9096 84.2316 51.2558C81.3182 54.6598 78.6625 54.5263 74.9136 52.5525C58.2292 43.7683 41.4042 35.2512 24.62 26.6571C18.8162 23.6854 12.9835 20.7701 7.16399 17.8291C6.58815 18.1019 6.0123 18.3746 5.43646 18.6474C6.6131 26.6064 7.78975 34.5653 9.1967 43.2965ZM56.1054 21.1156C54.0036 17.99 51.9018 14.8644 49.3753 11.1072C46.3287 16.7991 43.735 21.6449 40.9384 26.8696C49.9952 31.504 58.3007 35.754 66.6062 40.004C66.9375 39.6654 67.2688 39.3267 67.6 38.988C63.8947 33.2405 60.1894 27.493 56.1054 21.1156Z" fill="#7D1F2A"/>
</svg>
