<svg width="1033" height="188" viewBox="0 0 1033 188" fill="none" xmlns="http://www.w3.org/2000/svg">
<rect y="12" width="1022" height="175" rx="15" fill="#7D1F2A"/>
<path d="M996.755 187.14C996.655 187.334 996.553 187.528 996.451 187.722L686.729 187.628C686.729 187.628 686.581 187.47 686.306 187.158L686.289 187.14C678.256 177.926 670.967 164.299 667.869 150.827C663.352 131.321 667.164 112.186 679.717 94.544C693.529 75.1269 712.391 59.7043 736.308 60.0113H736.33C749.086 60.181 761.297 64.8414 771.986 71.9695C782.144 78.7442 799.75 71.6652 810.367 64.3983C822.8 55.9285 833.326 43.5329 841.42 30.8891C870.006 -13.6711 937.183 -5.79996 968.915 27.7373C985.764 45.5112 992.388 69.6322 985.255 97.4196C983.916 102.635 983.167 108.075 983.484 113.466C985.172 142.866 1016.38 149.394 996.755 187.14Z" fill="#F0F7FF"/>
<g opacity="0.5">
<path d="M985.253 97.4159C984.718 99.4837 984.289 101.577 983.969 103.689C983.746 105.191 983.591 106.64 983.504 108.035V108.126H861.97V27.7378H968.913C970.335 29.2333 971.691 30.7901 972.982 32.4081C986.004 48.6944 992.114 70.6969 985.253 97.4159Z" fill="#D8E8FC"/>
<path d="M985.253 97.4159C984.718 99.4836 984.289 101.577 983.969 103.689H867.018V32.408H972.982C986.004 48.6943 992.114 70.6968 985.253 97.4159Z" fill="#B1D2F9"/>
<path d="M983.481 113.462C983.379 111.687 983.385 109.908 983.499 108.134V108.043H859.01C857.788 108.049 856.616 108.528 855.744 109.379C854.871 110.23 854.366 111.386 854.335 112.601C854.335 112.649 854.335 112.695 854.335 112.741V113.465L983.481 113.462Z" fill="#B1D2F9"/>
</g>
<path d="M873.065 99.6514C873.065 99.6514 869.209 98.182 866.985 100.034C864.761 101.886 863.238 111.417 864 113.195C864.763 114.973 866.985 116.032 866.985 116.032C866.985 116.032 866.52 114.984 866.689 114.17C866.689 114.17 867.325 116.229 869.019 116.622C870.713 117.015 876.746 116.529 877.913 116.032C879.262 115.458 880.027 114.864 880.37 113.195C880.712 111.527 882.068 96.7141 873.065 99.6514Z" fill="#B5493F"/>
<path d="M891.721 187.123C891.691 187.125 891.661 187.125 891.632 187.123C891.521 187.128 891.412 187.096 891.322 187.031C891.231 186.967 891.165 186.874 891.134 186.768L885.486 162.474L885.076 160.704L887.006 160.62L887.638 163.932L891.993 186.785C891.998 186.825 891.996 186.866 891.985 186.905C891.974 186.945 891.956 186.981 891.93 187.013C891.905 187.044 891.873 187.07 891.837 187.089C891.801 187.108 891.761 187.12 891.721 187.123Z" fill="#E5BD9E"/>
<path d="M863.017 160.708L862.086 164.707L856.956 186.774C856.925 186.88 856.859 186.973 856.769 187.037C856.678 187.102 856.569 187.134 856.458 187.129C856.428 187.131 856.398 187.131 856.369 187.129C856.329 187.125 856.29 187.114 856.255 187.095C856.219 187.076 856.188 187.05 856.163 187.019C856.138 186.988 856.119 186.952 856.108 186.913C856.097 186.875 856.094 186.835 856.1 186.795L860.741 162.43L861.086 160.63L863.017 160.708Z" fill="#E5BD9E"/>
<path d="M863.017 160.709L862.086 164.708C862.059 164.249 861.922 163.803 861.688 163.406C861.454 163.009 861.13 162.673 860.741 162.425L861.086 160.625L863.017 160.709Z" fill="#CC9E7F"/>
<path d="M887.634 163.936C886.678 162.534 885.52 162.534 885.483 162.48L885.073 160.71L887.004 160.626L887.634 163.936Z" fill="#CC9E7F"/>
<path d="M859.176 160.884H887.148C887.812 160.884 888.449 160.622 888.918 160.155C889.387 159.688 889.651 159.054 889.651 158.394V156.395C889.651 155.734 889.387 155.1 888.918 154.633C888.448 154.166 887.811 153.903 887.147 153.903H859.176C858.512 153.903 857.875 154.166 857.405 154.633C856.935 155.1 856.671 155.734 856.671 156.395V158.395C856.672 158.722 856.736 159.046 856.862 159.348C856.988 159.65 857.173 159.925 857.405 160.156C857.638 160.387 857.914 160.57 858.218 160.695C858.522 160.82 858.847 160.884 859.176 160.884Z" fill="#C65447"/>
<path d="M882.95 145.685C882.121 141.095 879.709 135.871 879.709 135.871C881.465 128.552 879.672 120.322 879.672 120.322C878.706 120.064 877.722 119.877 876.729 119.761C876.605 119.108 876.25 117.144 876.099 115.453C876.083 115.256 876.069 115.064 876.057 114.877C876.026 114.451 876.024 114.024 876.05 113.598L874.814 113.679L869.722 114.017L869.506 114.031C869.506 114.031 869.537 114.485 869.544 115.171C869.561 116.401 869.501 118.371 869.057 119.782C866.867 120.008 865.383 120.326 865.383 120.326C863.949 120.569 864.255 129.448 866.933 136.351C868.166 139.528 864.678 144.445 864.678 145.688C864.678 146.932 883.25 147.344 882.95 145.685Z" fill="#FFB27D"/>
<path d="M876.095 115.45C875.617 116.011 874.404 117.212 872.876 117.239C870.876 117.274 869.54 115.168 869.54 115.168C869.573 114.78 869.632 114.394 869.718 114.014L874.81 113.676C875.244 114.055 875.659 114.454 876.053 114.874C876.065 115.06 876.079 115.252 876.095 115.45Z" fill="#EF9E67"/>
<path d="M872.841 116.049C870.07 116.049 867.803 113.771 867.803 110.986V106.767C867.801 105.868 868.157 105.005 868.793 104.366C869.428 103.727 870.293 103.365 871.196 103.357H874.252C875.156 103.365 876.02 103.727 876.656 104.366C877.292 105.005 877.647 105.868 877.645 106.767V111.22C877.648 112.493 877.144 113.716 876.244 114.62C875.344 115.525 874.121 116.039 872.841 116.049Z" fill="#FFB27D"/>
<path d="M871.176 112.904C871.176 112.904 871.281 113.574 872.915 113.597C872.915 113.597 874.288 113.615 874.301 112.896C874.301 112.89 873.015 112.275 871.176 112.904Z" fill="white"/>
<path d="M859.144 153.902C859.144 153.902 862.527 146.018 865.637 144.477C868.748 142.936 881.097 144.305 882.952 145.686C884.807 147.067 887.18 153.902 887.18 153.902H859.144Z" fill="#22356B"/>
<path d="M862.235 153.901C862.235 153.901 863.444 149.172 866.133 148.966C868.822 148.76 872.412 151.261 873.687 150.587C874.963 149.912 877.399 148.226 879.66 148.656C881.921 149.086 885.321 153.901 885.321 153.901H862.235Z" fill="#1B2E59"/>
<path d="M876.978 183.377L873.778 183.604C873.778 183.604 871.983 178.557 869.973 172.668C869.787 172.117 869.595 171.559 869.409 170.995C867.751 166.088 866.052 160.867 865.181 157.636C864.973 156.862 864.816 156.16 864.708 155.521C863.74 149.938 866.233 149.324 866.822 149.178C867.486 149.017 871.49 146.878 874.21 154.085C875.128 156.511 876.622 163.259 876.574 169.648C876.542 175.787 876.978 183.377 876.978 183.377Z" fill="#FFB27D"/>
<path d="M869.98 172.671C869.794 172.12 869.602 171.562 869.416 170.998C867.757 166.091 866.059 160.87 865.188 157.639C864.979 156.865 864.823 156.163 864.714 155.523C864.797 155.751 870.163 170.22 874.745 171.051C877.684 171.585 873.445 172.256 869.98 172.671Z" fill="#EF9E67"/>
<path d="M876.978 183.377L873.77 184.078L872.952 184.259C872.952 184.259 871.631 177.573 869.412 170.997C870.825 171.073 872.241 170.936 873.613 170.592C874.532 170.369 875.426 170.056 876.283 169.658C876.938 176.462 876.978 183.377 876.978 183.377Z" fill="#E9F3FE"/>
<path d="M873.772 184.08L872.955 184.261C872.955 184.261 871.633 177.575 869.415 170.999C870.828 171.075 872.244 170.938 873.616 170.594C873.616 170.594 872.542 180.457 873.772 184.08Z" fill="#C7DCF2"/>
<path d="M877.694 185.148C877.736 185.299 877.772 185.44 877.803 185.569C877.821 185.636 877.824 185.706 877.814 185.775C877.804 185.843 877.779 185.909 877.743 185.969C877.706 186.028 877.658 186.079 877.601 186.12C877.544 186.16 877.48 186.189 877.412 186.204L873.684 187.007C873.552 187.036 873.413 187.011 873.299 186.938C873.185 186.866 873.104 186.752 873.074 186.62C873.021 186.383 872.981 186.144 872.954 185.904C872.888 185.359 872.888 184.808 872.954 184.263C872.963 184.186 872.99 184.112 873.033 184.046C873.075 183.981 873.132 183.926 873.199 183.886C874.924 182.877 876.2 183.045 876.675 183.158C876.738 183.174 876.797 183.201 876.849 183.239C876.902 183.278 876.946 183.326 876.979 183.381C877.288 183.939 877.528 184.532 877.694 185.148Z" fill="#22356B"/>
<path d="M876.805 183.287C876.805 183.287 876.19 182.638 874.911 182.772C874.54 182.81 874.184 182.938 873.875 183.146C873.565 183.353 873.312 183.633 873.138 183.961L872.97 184.191C872.993 184.141 873.494 182.713 874.89 182.566C875.279 182.513 875.675 182.56 876.042 182.702C876.408 182.843 876.732 183.076 876.982 183.377L876.805 183.287Z" fill="#22356B"/>
<path d="M877.694 185.148C877.736 185.299 877.772 185.439 877.803 185.568C877.821 185.636 877.824 185.706 877.814 185.775C877.804 185.843 877.779 185.909 877.743 185.969C877.706 186.028 877.658 186.079 877.601 186.12C877.544 186.16 877.48 186.189 877.412 186.204L873.684 187.007C873.552 187.035 873.413 187.011 873.299 186.938C873.185 186.866 873.104 186.751 873.074 186.62C873.021 186.383 872.981 186.144 872.954 185.904C872.954 185.904 873.377 186.696 875.644 186.176C877.01 185.857 877.512 185.432 877.694 185.148Z" fill="#22356B"/>
<path d="M888.536 139.681L883.37 139.765C882.973 138.862 882.284 135.852 881.602 134.035C881.856 135.145 882.105 136.291 882.338 137.416C883.25 141.788 883.94 145.899 883.833 146.779C883.588 148.784 875.792 147.881 873.782 147.399C871.772 146.917 867.203 148.02 863.547 147.95C861.446 147.911 862.09 142.028 863.016 137.045C863.236 135.849 863.475 134.703 863.697 133.705C862.516 136.066 861.979 138.978 861.693 139.765C861.693 139.765 856.646 139.438 856.644 139.426C856.472 138.528 858.374 124.337 862.239 121.437C863.014 120.821 863.908 120.369 864.865 120.109C865.822 119.849 866.823 119.787 867.805 119.927C867.805 119.927 869.073 122.197 872.738 122.368C873.792 122.427 874.847 122.246 875.821 121.838C876.795 121.43 877.662 120.806 878.357 120.014C878.357 120.014 881.419 120.09 882.656 121.437C883.894 122.785 886.636 127.615 888.536 139.681Z" fill="#2B478B"/>
<path d="M883.83 146.779C883.585 148.784 875.788 147.881 873.778 147.398C871.769 146.916 867.2 148.02 863.544 147.949C861.443 147.91 862.087 142.027 863.013 137.044C863.013 137.044 866.974 144.014 871.912 143.966C876.851 143.919 882.342 137.416 882.342 137.416C883.251 141.787 883.937 145.898 883.83 146.779Z" fill="#233F77"/>
<path d="M869.348 118.448C869.348 118.448 871.066 121.839 872.741 122.373C872.741 122.373 870.36 123.278 866.891 119.862C867.14 119.433 867.498 119.076 867.929 118.828C868.361 118.58 868.85 118.449 869.348 118.448Z" fill="#E6F1FF"/>
<path d="M876.562 118.448C876.562 118.448 874.413 121.839 872.74 122.373C872.74 122.373 875.481 123.475 878.951 120.06C878.951 120.056 878.33 118.486 876.562 118.448Z" fill="#E6F1FF"/>
<path d="M872.498 122.358C872.499 122.305 872.517 122.253 872.548 122.21C872.579 122.166 872.622 122.133 872.672 122.113C872.722 122.094 872.777 122.09 872.829 122.101C872.882 122.113 872.93 122.139 872.967 122.177C873.005 122.216 873.03 122.264 873.04 122.317C873.05 122.369 873.044 122.424 873.023 122.473C873.002 122.522 872.967 122.564 872.922 122.594C872.877 122.623 872.825 122.639 872.771 122.639C872.698 122.637 872.628 122.606 872.577 122.554C872.526 122.501 872.498 122.431 872.498 122.358Z" fill="#35488B"/>
<path d="M872.221 129.332C872.222 129.23 872.253 129.13 872.311 129.045C872.368 128.96 872.45 128.894 872.545 128.855C872.64 128.816 872.745 128.806 872.846 128.827C872.947 128.847 873.04 128.897 873.112 128.969C873.185 129.042 873.234 129.134 873.254 129.235C873.274 129.336 873.264 129.44 873.224 129.534C873.185 129.629 873.118 129.71 873.032 129.767C872.946 129.824 872.846 129.854 872.743 129.854C872.604 129.853 872.472 129.798 872.374 129.7C872.276 129.602 872.221 129.47 872.221 129.332Z" fill="#233F77"/>
<path d="M872.221 137.713C872.222 137.611 872.253 137.511 872.311 137.426C872.369 137.341 872.451 137.276 872.546 137.237C872.641 137.198 872.746 137.189 872.847 137.209C872.948 137.23 873.04 137.279 873.113 137.352C873.185 137.425 873.235 137.517 873.254 137.618C873.274 137.718 873.264 137.822 873.224 137.917C873.184 138.011 873.118 138.092 873.032 138.149C872.946 138.206 872.846 138.236 872.743 138.236C872.604 138.235 872.471 138.18 872.373 138.082C872.276 137.984 872.221 137.851 872.221 137.713Z" fill="#233F77"/>
<path d="M887.621 153.397L887.635 151.938C887.635 151.938 889.639 139.554 888.251 139.171C886.863 138.788 884.25 140.105 884.25 140.105L885.073 151.938C885.059 152.21 885.019 152.48 884.953 152.745C884.918 152.753 884.883 152.759 884.849 152.768C883.486 153.158 884.305 155.975 885.321 156.025C886.067 156.062 887.031 154.937 887.684 154.552C887.969 154.378 887.886 153.594 887.621 153.397Z" fill="#EF9E67"/>
<path d="M883.366 139.764C883.366 139.764 883.043 141.51 883.839 141.765C884.635 142.02 888.703 142.149 888.956 141.765C889.21 141.381 888.858 138.452 888.252 138.236C887.646 138.02 883.745 138.815 883.366 139.764Z" fill="#233F77"/>
<path d="M860.808 140.104L859.986 151.937H857.424C857.424 151.937 855.419 139.553 856.807 139.17C858.195 138.787 860.808 140.104 860.808 140.104Z" fill="#FFB27D"/>
<path d="M857.376 154.551C857.094 154.384 857.174 153.595 857.439 153.396C858.07 152.919 859.227 152.487 860.21 152.767C861.573 153.157 860.754 155.974 859.738 156.024C858.992 156.061 858.027 154.939 857.376 154.551Z" fill="#FFB27D"/>
<path d="M857.421 151.937L857.439 153.945C857.767 153.914 859.622 154.609 860.199 153.845C860.423 153.547 860.007 152.76 859.983 151.937C859.908 149.471 857.421 151.937 857.421 151.937Z" fill="#FFB27D"/>
<path d="M861.69 139.764C861.69 139.764 862.013 141.51 861.217 141.765C860.42 142.02 856.353 142.149 856.099 141.765C855.846 141.381 856.199 138.452 856.804 138.236C857.409 138.02 861.314 138.815 861.69 139.764Z" fill="#233F77"/>
<path d="M873.386 104.025C873.386 104.025 874.143 106.738 876.099 107.503C876.099 107.503 875.197 105.94 875.514 105.173C875.514 105.173 876.381 108.238 877.648 109.291C877.648 109.291 879.452 102.939 874.306 102.62C869.161 102.3 867.096 105.014 867.065 106.966C867.052 108.156 867.304 109.333 867.805 110.414C867.805 110.414 868.369 106.806 870.624 105.753C872.878 104.7 873.386 104.025 873.386 104.025Z" fill="#B5493F"/>
<path d="M878.724 171.007C876.671 177.797 874.496 184.204 874.496 184.204L870.832 183.447C870.832 183.447 871.211 177.535 871.323 170.981C871.332 170.461 871.39 169.938 871.427 169.413C871.762 164.465 872.167 159.354 872.574 156.197C873.579 148.436 876.65 148.906 877.325 149.02C878 149.133 882.513 148.697 882.277 156.393C882.201 158.893 880.509 165.096 878.724 171.007Z" fill="#FFB27D"/>
<path d="M871.325 170.981C871.359 170.461 871.392 169.938 871.429 169.412C871.764 164.464 872.169 159.354 872.576 156.196C872.576 156.196 872.093 169.722 876.565 171.236C879.521 172.239 874.837 171.556 871.325 170.981Z" fill="#EF9E67"/>
<path d="M878.727 171.007C877.56 174.862 876.355 178.592 875.532 181.101C874.904 183.01 874.497 184.208 874.497 184.208L870.602 183.49C870.602 183.49 870.884 177.501 871.701 169.905C872.203 170.203 873.375 170.589 875.788 170.826C876.614 170.904 877.586 170.97 878.727 171.007Z" fill="#E9F3FE"/>
<path d="M874.516 186.362C874.5 186.519 874.483 186.662 874.465 186.789C874.457 186.858 874.434 186.924 874.399 186.984C874.364 187.044 874.317 187.096 874.261 187.138C874.206 187.179 874.142 187.209 874.074 187.225C874.007 187.241 873.936 187.244 873.868 187.232L870.109 186.587C869.975 186.564 869.856 186.49 869.777 186.38C869.698 186.271 869.665 186.135 869.686 186.001C869.724 185.762 869.775 185.525 869.838 185.291C869.978 184.761 870.182 184.249 870.444 183.768C870.481 183.699 870.533 183.64 870.597 183.595C870.66 183.55 870.734 183.521 870.811 183.509C872.784 183.216 873.911 183.839 874.306 184.13C874.359 184.167 874.405 184.215 874.439 184.27C874.474 184.325 874.497 184.387 874.507 184.451C874.588 185.085 874.591 185.727 874.516 186.362Z" fill="#35488B"/>
<path d="M874.374 184.301C874.374 184.292 874.043 183.469 872.805 183.118C872.448 183.014 872.07 183.001 871.707 183.078C871.343 183.155 871.003 183.32 870.719 183.559L870.478 183.709C870.519 183.671 871.513 182.533 872.862 182.918C873.244 183.015 873.595 183.206 873.882 183.474C874.169 183.742 874.384 184.078 874.505 184.451L874.374 184.301Z" fill="#35488B"/>
<path d="M874.515 186.363C874.5 186.52 874.483 186.663 874.464 186.79C874.456 186.859 874.433 186.925 874.398 186.985C874.363 187.045 874.317 187.097 874.261 187.139C874.205 187.18 874.141 187.21 874.074 187.226C874.006 187.242 873.936 187.245 873.867 187.233L870.108 186.588C869.975 186.565 869.855 186.491 869.776 186.381C869.697 186.272 869.665 186.136 869.685 186.002C869.723 185.763 869.774 185.525 869.838 185.291C869.838 185.291 869.943 186.187 872.233 186.553C873.617 186.766 874.233 186.559 874.515 186.363Z" fill="#35488B"/>
<path d="M784.329 187.239C784.329 187.239 784.298 183.454 785.965 183.161C787.632 182.868 790.052 181.955 790.385 187.239H784.329Z" fill="#22356B"/>
<path d="M796.654 187.239C796.654 187.239 796.624 183.454 798.29 183.161C799.956 182.868 802.377 181.955 802.711 187.239H796.654Z" fill="#22356B"/>
<path d="M781.555 146.889C780.579 149.16 779.936 151.559 779.647 154.012H803.174C803.174 154.012 801.019 147.087 799.087 146.321C797.155 145.556 781.555 146.889 781.555 146.889Z" fill="#1B2E59"/>
<path d="M786.318 112.878C786.318 112.878 784.128 109.883 782.682 107.478C780.956 104.61 781.921 99.994 788.206 99.0154C788.206 99.0154 790.225 98.5849 790.8 98.0493C790.8 98.0493 790.771 98.798 790.59 98.9971C790.59 98.9971 795.596 98.3424 795.955 100.579C797.055 107.421 795.771 109.918 795.771 109.918L786.318 112.878Z" fill="#B5493F"/>
<path d="M810.271 187.234C810.242 187.236 810.213 187.236 810.184 187.234C810.072 187.239 809.963 187.207 809.872 187.143C809.782 187.078 809.716 186.986 809.685 186.879L804.036 162.585L803.626 160.815L805.557 160.731L806.188 164.043L810.543 186.896C810.549 186.936 810.546 186.977 810.535 187.016C810.525 187.055 810.506 187.092 810.48 187.124C810.455 187.155 810.423 187.181 810.387 187.2C810.351 187.219 810.312 187.231 810.271 187.234Z" fill="#E5BD9E"/>
<path d="M781.562 160.819L780.632 164.818L775.502 186.885C775.471 186.991 775.405 187.084 775.314 187.148C775.224 187.213 775.114 187.245 775.003 187.24C774.973 187.242 774.944 187.242 774.914 187.24C774.874 187.236 774.835 187.225 774.8 187.206C774.765 187.187 774.733 187.161 774.708 187.13C774.683 187.099 774.665 187.063 774.654 187.024C774.643 186.986 774.64 186.946 774.645 186.906L779.286 162.541L779.631 160.741L781.562 160.819Z" fill="#E5BD9E"/>
<path d="M781.562 160.819L780.632 164.817C780.604 164.358 780.468 163.913 780.234 163.516C780 163.119 779.675 162.783 779.286 162.535L779.631 160.735L781.562 160.819Z" fill="#CC9E7F"/>
<path d="M806.185 164.052C805.229 162.65 804.071 162.65 804.034 162.596L803.624 160.826L805.555 160.742L806.185 164.052Z" fill="#CC9E7F"/>
<path d="M805.698 160.995H777.727C776.343 160.995 775.222 159.88 775.222 158.504V156.504C775.222 155.128 776.343 154.013 777.727 154.013H805.698C807.081 154.013 808.202 155.128 808.202 156.504V158.504C808.202 159.88 807.081 160.995 805.698 160.995Z" fill="#A03530"/>
<path d="M801.501 145.796C800.672 141.206 798.259 135.982 798.259 135.982C800.015 128.663 798.223 120.433 798.223 120.433C797.257 120.174 796.273 119.987 795.279 119.872C795.156 119.219 794.801 117.254 794.65 115.562C794.635 115.366 794.62 115.174 794.608 114.987C794.579 114.562 794.579 114.134 794.608 113.709L793.372 113.79L788.28 114.128L788.064 114.142C788.064 114.142 788.095 114.596 788.104 115.28C788.118 116.511 788.059 118.48 787.615 119.893C785.425 120.119 783.941 120.437 783.941 120.437C782.507 120.68 782.813 129.559 785.491 136.461C786.724 139.638 783.236 144.555 783.236 145.799C783.236 147.043 801.8 147.455 801.501 145.796Z" fill="#FFB27D"/>
<path d="M794.646 115.56C794.169 116.12 792.955 117.323 791.428 117.35C789.428 117.385 788.093 115.278 788.093 115.278C788.125 114.89 788.184 114.505 788.269 114.125L793.361 113.787C793.796 114.164 794.211 114.562 794.606 114.98C794.617 115.171 794.631 115.363 794.646 115.56Z" fill="#EF9E67"/>
<path d="M792.053 115.95C791.401 116.074 790.73 116.07 790.08 115.936C789.429 115.803 788.812 115.544 788.262 115.173C787.712 114.802 787.242 114.327 786.876 113.775C786.511 113.223 786.259 112.605 786.134 111.957L785.326 107.816C785.153 106.933 785.337 106.017 785.839 105.268C786.34 104.518 787.118 103.996 788.004 103.813L791.003 103.222C791.89 103.054 792.807 103.243 793.554 103.747C794.301 104.252 794.816 105.03 794.986 105.912L795.831 110.283C796.077 111.532 795.818 112.827 795.111 113.887C794.404 114.948 793.305 115.689 792.053 115.95Z" fill="#FFB27D"/>
<path d="M789.812 113.185C789.812 113.185 790.043 113.822 791.644 113.527C791.644 113.527 792.995 113.281 792.869 112.566C792.881 112.566 791.503 112.211 789.812 113.185Z" fill="white"/>
<path d="M808.483 142.391L804.045 140.163L802.709 139.491C802.313 138.588 800.978 135.763 800.151 134.145C800.336 134.954 800.519 135.783 800.695 136.609C800.76 136.916 800.823 137.221 800.888 137.527C801.798 141.897 802.489 146.01 802.382 146.89C802.137 148.895 794.34 147.992 792.331 147.51C790.321 147.027 785.752 148.131 782.096 148.059C779.995 148.022 780.639 142.138 781.565 137.154C781.785 135.96 782.026 134.814 782.245 133.816C781.064 136.178 779.849 138.671 779.558 139.458L777.041 140.788L774.257 142.259L774.185 142.298C774.179 142.287 774.175 142.274 774.174 142.26C774.005 141.352 777.072 124.54 780.939 121.642C780.939 121.567 780.958 121.494 780.995 121.429C781.032 121.364 781.086 121.31 781.15 121.272C782.67 120.227 784.527 119.787 786.356 120.038C786.356 120.038 787.625 122.309 791.289 122.482C792.344 122.54 793.399 122.359 794.373 121.95C795.347 121.542 796.214 120.917 796.908 120.125C796.908 120.125 798.702 120.17 800.097 120.795C800.515 120.969 800.893 121.226 801.208 121.549C802.428 122.876 808.359 134.263 808.483 142.391Z" fill="#A53A35"/>
<path d="M802.899 139.287C802.899 139.287 796.604 146.045 793.539 148.321L794.516 150.34C794.516 150.34 804.24 146.642 808.343 141.453L802.899 139.287Z" fill="#0052B4"/>
<path d="M794.332 147.846C794.332 147.846 791.742 148.574 791.321 149.389C790.899 150.203 791.077 152.508 791.731 152.124C792.385 151.74 795.987 149.361 795.987 149.361L794.332 147.846Z" fill="#0052B4"/>
<path d="M787.901 118.558C787.901 118.558 789.619 121.95 791.292 122.484C791.292 122.484 788.913 123.388 785.443 119.973C785.692 119.544 786.051 119.187 786.482 118.939C786.913 118.69 787.403 118.559 787.901 118.558Z" fill="#E6F1FF"/>
<path d="M795.114 118.558C795.114 118.558 792.965 121.95 791.291 122.484C791.291 122.484 794.11 123.388 797.572 119.973C797.323 119.544 796.965 119.187 796.533 118.939C796.102 118.691 795.613 118.56 795.114 118.558Z" fill="#E6F1FF"/>
<path d="M779.576 139.287C779.576 139.287 786.127 145.794 789.278 147.948L788.379 150.005C788.379 150.005 779.087 146.83 774.786 141.805L779.576 139.287Z" fill="#FFB27D"/>
<path d="M786.938 147.368C786.938 147.368 789.616 147.553 790.197 148.257C790.777 148.961 791.066 151.263 790.35 151.02C789.634 150.778 785.623 149.185 785.623 149.185L786.938 147.368Z" fill="#FFB27D"/>
<path d="M790.772 129.443C790.773 129.34 790.804 129.24 790.862 129.156C790.92 129.071 791.002 129.005 791.097 128.967C791.193 128.928 791.297 128.918 791.398 128.939C791.499 128.96 791.592 129.009 791.664 129.082C791.737 129.155 791.786 129.248 791.805 129.348C791.825 129.449 791.814 129.553 791.774 129.648C791.735 129.742 791.668 129.823 791.582 129.879C791.496 129.936 791.395 129.966 791.292 129.966C791.154 129.965 791.021 129.909 790.924 129.811C790.826 129.713 790.772 129.581 790.772 129.443Z" fill="#C65447"/>
<path d="M790.772 137.824C790.773 137.722 790.804 137.622 790.862 137.537C790.92 137.452 791.002 137.386 791.097 137.348C791.193 137.309 791.297 137.3 791.398 137.32C791.499 137.341 791.592 137.391 791.664 137.464C791.737 137.536 791.786 137.629 791.805 137.73C791.825 137.83 791.814 137.934 791.774 138.029C791.735 138.123 791.668 138.204 791.582 138.261C791.496 138.317 791.395 138.347 791.292 138.347C791.154 138.346 791.021 138.29 790.924 138.192C790.826 138.094 790.772 137.962 790.772 137.824Z" fill="#C65447"/>
<path d="M785.328 107.816C785.328 107.816 785.481 106.134 786.552 105.865C787.623 105.596 791.613 107.024 792.471 105.865C793.329 104.705 793.98 104.216 794.559 104.799C795.139 105.382 794.73 101.294 794.589 101.241C794.448 101.187 785.569 101.674 785.569 101.674L783.455 103.917L783.564 106.466L785.328 107.816Z" fill="#B5493F"/>
<path d="M791.556 183.719C791.556 183.719 790.055 184.345 787.773 184.362C786.155 184.373 784.55 184.078 783.043 183.492C783.043 183.492 781.727 174.231 780.941 166.309C780.495 161.805 780.219 157.733 780.454 156.045C781.103 151.389 783.211 148.698 785.872 148.922C788.533 149.147 791.02 150.999 791.205 153.246C791.389 155.494 791.556 183.719 791.556 183.719Z" fill="#2B478B"/>
<path d="M783.226 130.298L782.24 133.816C781.165 136.978 779.844 138.671 779.552 139.458L777.035 140.788L774.252 142.259H774.169C773.788 140.401 776.92 124.453 780.783 121.548C780.897 121.448 781.016 121.355 781.141 121.268C782.392 123.633 784.684 128.546 783.226 130.298Z" fill="#E6F1FF"/>
<path d="M781.552 140.749L780.309 141.839L777.102 144.643C775.327 144.503 774.046 142.388 774.046 142.388C774.673 141.38 775.63 140.647 776.583 140.124C777.582 139.585 778.654 139.194 779.767 138.963L781.552 140.749Z" fill="#E6F1FF"/>
<path d="M781.552 140.749L780.309 141.838C778.154 141.822 776.582 140.127 776.582 140.127C777.58 139.587 778.653 139.196 779.765 138.966L781.552 140.749Z" fill="#C7DCF2"/>
<path d="M800.1 120.794C800.523 120.985 801.032 121.203 801.324 121.52C801.717 121.949 802.544 123.463 803.566 125.544C805.708 129.902 808.4 136.901 808.483 142.391L805.89 141.089L804.045 140.163L802.709 139.492C801.922 138.205 800.842 135.832 800.151 134.146C800.336 134.955 800.519 135.783 800.695 136.609L798.77 129.443C797.913 128.176 799.72 122.038 800.1 120.794Z" fill="#E6F1FF"/>
<path d="M808.483 142.391C808.483 142.391 807.2 144.507 805.427 144.646L801.782 141.453L800.978 140.752L802.497 139.019C803.339 139.172 804.162 139.41 804.954 139.73C806.217 140.239 807.664 141.075 808.483 142.391Z" fill="#E6F1FF"/>
<path d="M804.954 139.73C804.954 139.73 803.241 141.237 801.781 141.453L800.978 140.752L802.497 139.019C803.338 139.172 804.161 139.41 804.954 139.73Z" fill="#C7DCF2"/>
<path d="M802.541 175.906C802.814 179.763 802.975 182.584 802.975 182.584C798.725 185.297 794.674 184.495 794.674 184.495C794.674 184.495 790.515 163.088 789.333 156.389C789.169 155.466 789.064 154.823 789.033 154.552C788.772 152.309 790.848 150.002 793.411 149.255C795.975 148.508 798.571 150.726 800.121 155.163C801.129 158.047 802.031 168.755 802.541 175.906Z" fill="#2B478B"/>
<path d="M802.541 175.905C802.814 179.762 802.975 182.583 802.975 182.583C798.725 185.296 794.674 184.494 794.674 184.494C794.674 184.494 790.515 163.088 789.333 156.389C789.352 155.71 789.365 155.308 789.367 155.256C789.42 155.679 791.936 175.211 802.541 175.905Z" fill="#233F77"/>
<path d="M787.773 184.363C786.155 184.374 784.55 184.078 783.043 183.492C783.043 183.492 781.727 174.231 780.941 166.31C780.986 166.528 783.714 179.842 787.773 184.363Z" fill="#233F77"/>
<path d="M803.563 125.544C805.706 129.902 808.707 136.662 808.481 142.391L805.887 141.089C805.947 141.036 806.009 140.986 806.073 140.94C808.719 139.037 803.692 125.871 803.563 125.544Z" fill="#C7DCF2"/>
<path d="M739.378 112.036C738.459 110.751 737.839 109.279 737.561 107.727C737.117 105.174 737.46 98.9222 742.199 99.2041C745.571 99.4046 747.414 98.5886 748.902 99.4592C750.268 100.257 752.224 102.569 751.842 104.982C751.46 107.395 749.164 112.036 749.164 112.036H739.378Z" fill="#1B2E59"/>
<path d="M737.351 187.239C737.351 187.239 737.322 183.454 738.988 183.161C740.653 182.868 743.075 181.955 743.407 187.239H737.351Z" fill="#22356B"/>
<path d="M745.948 187.239C745.948 187.239 745.918 183.454 747.585 183.161C749.252 182.868 751.665 181.955 752.005 187.239H745.948Z" fill="#22356B"/>
<path d="M734.578 146.889C733.602 149.16 732.959 151.559 732.669 154.012H756.197C756.197 154.012 754.042 147.087 752.11 146.321C750.178 145.556 734.578 146.889 734.578 146.889Z" fill="#993530"/>
<path d="M763.295 187.234C763.266 187.236 763.236 187.236 763.207 187.234C763.095 187.239 762.986 187.207 762.895 187.143C762.805 187.078 762.739 186.986 762.708 186.879L757.059 162.585L756.649 160.815L758.58 160.731L759.211 164.043L763.566 186.896C763.572 186.936 763.569 186.977 763.558 187.016C763.548 187.055 763.529 187.092 763.504 187.123C763.478 187.155 763.447 187.181 763.411 187.2C763.375 187.219 763.336 187.231 763.295 187.234Z" fill="#E5BD9E"/>
<path d="M734.59 160.819L733.661 164.817L728.53 186.885C728.499 186.991 728.432 187.083 728.342 187.148C728.251 187.212 728.142 187.244 728.031 187.239C728.001 187.241 727.972 187.241 727.942 187.239C727.902 187.236 727.863 187.224 727.828 187.205C727.793 187.186 727.761 187.16 727.736 187.129C727.711 187.098 727.693 187.062 727.682 187.024C727.671 186.985 727.668 186.945 727.673 186.906L732.314 162.535L732.658 160.735L734.59 160.819Z" fill="#E5BD9E"/>
<path d="M734.59 160.819L733.661 164.817C733.633 164.358 733.497 163.913 733.263 163.516C733.029 163.119 732.704 162.783 732.315 162.535L732.659 160.735L734.59 160.819Z" fill="#CC9E7F"/>
<path d="M759.212 164.052C758.258 162.65 757.098 162.65 757.062 162.596L756.652 160.826L758.582 160.742L759.212 164.052Z" fill="#CC9E7F"/>
<path d="M730.748 160.995H758.72C759.384 160.995 760.021 160.733 760.491 160.265C760.961 159.798 761.224 159.164 761.224 158.504V156.504C761.224 155.844 760.961 155.21 760.491 154.743C760.021 154.275 759.384 154.013 758.72 154.013H730.748C730.084 154.013 729.447 154.275 728.978 154.742C728.508 155.209 728.245 155.842 728.245 156.503V158.504C728.244 158.831 728.309 159.155 728.435 159.457C728.56 159.759 728.745 160.034 728.977 160.265C729.21 160.497 729.486 160.68 729.789 160.805C730.093 160.931 730.419 160.995 730.748 160.995Z" fill="#FF9924"/>
<path d="M754.524 145.796C753.695 141.206 751.282 135.982 751.282 135.982C753.037 128.663 751.244 120.433 751.244 120.433C750.278 120.174 749.295 119.987 748.302 119.872C748.177 119.219 747.822 117.254 747.673 115.562C747.656 115.366 747.642 115.174 747.629 114.987C747.6 114.562 747.6 114.134 747.629 113.709L746.392 113.79L741.3 114.128L741.084 114.142C741.084 114.142 741.115 114.596 741.124 115.28C741.139 116.511 741.079 118.48 740.636 119.893C738.445 120.119 736.961 120.437 736.961 120.437C735.527 120.68 735.833 129.559 738.511 136.461C739.745 139.638 736.256 144.555 736.256 145.799C736.256 147.043 754.824 147.455 754.524 145.796Z" fill="#FFB27D"/>
<path d="M747.674 115.56C747.195 116.12 745.99 117.323 744.453 117.35C742.454 117.385 741.119 115.278 741.119 115.278C741.151 114.89 741.21 114.505 741.295 114.125L746.387 113.787C746.822 114.165 747.236 114.565 747.63 114.985C747.64 115.171 747.654 115.363 747.674 115.56Z" fill="#EF9E67"/>
<path d="M744.414 116.158C743.072 116.149 741.789 115.611 740.845 114.663C739.9 113.714 739.372 112.432 739.376 111.097V106.878C739.374 105.979 739.73 105.116 740.366 104.477C741.002 103.838 741.866 103.475 742.77 103.468H745.825C746.729 103.475 747.593 103.838 748.229 104.477C748.865 105.116 749.221 105.979 749.219 106.878V111.335C749.22 112.608 748.716 113.829 747.816 114.732C746.916 115.636 745.693 116.148 744.414 116.158Z" fill="#FFB27D"/>
<path d="M742.753 113.017C742.753 113.017 742.857 113.686 744.492 113.709C744.492 113.709 745.866 113.728 745.879 113.008C745.879 113 744.592 112.385 742.753 113.017Z" fill="white"/>
<path d="M761.505 142.391L757.067 140.163L755.733 139.492C755.335 138.589 754.001 135.764 753.173 134.146C753.359 134.955 753.541 135.783 753.717 136.609C753.784 136.916 753.847 137.222 753.91 137.528C754.821 141.898 755.512 146.01 755.404 146.89C755.159 148.895 747.363 147.993 745.353 147.51C743.343 147.028 738.774 148.131 735.118 148.06C733.017 148.022 733.661 142.139 734.587 137.155C734.807 135.96 735.048 134.815 735.268 133.816C734.087 136.179 732.872 138.672 732.58 139.458L730.063 140.789L727.28 142.259L727.208 142.299C727.202 142.287 727.198 142.274 727.197 142.261C727.027 141.352 729.948 124.455 733.811 121.55C733.925 121.45 734.045 121.356 734.17 121.269C735.689 120.225 737.547 119.785 739.376 120.035C739.376 120.035 740.644 122.307 744.309 122.479C745.364 122.538 746.419 122.356 747.392 121.948C748.366 121.539 749.233 120.915 749.928 120.122C749.928 120.122 751.722 120.167 753.117 120.793C753.535 120.967 753.913 121.223 754.228 121.547C755.451 122.876 761.381 134.264 761.505 142.391Z" fill="#0052B4"/>
<path d="M755.928 139.287C755.928 139.287 749.634 146.045 746.567 148.321L747.546 150.34C747.546 150.34 757.27 146.642 761.371 141.453L755.928 139.287Z" fill="#0052B4"/>
<path d="M747.36 147.846C747.36 147.846 744.771 148.574 744.35 149.389C743.928 150.203 744.106 152.508 744.758 152.124C745.411 151.74 749.015 149.361 749.015 149.361L747.36 147.846Z" fill="#0052B4"/>
<path d="M740.922 118.558C740.922 118.558 742.64 121.95 744.314 122.484C744.314 122.484 741.934 123.388 738.464 119.973C738.713 119.544 739.072 119.187 739.503 118.939C739.934 118.69 740.424 118.559 740.922 118.558Z" fill="#233F77"/>
<path d="M748.137 118.558C748.137 118.558 745.988 121.95 744.315 122.484C744.315 122.484 747.125 123.388 750.595 119.973C750.346 119.544 749.987 119.187 749.556 118.939C749.125 118.69 748.635 118.559 748.137 118.558Z" fill="#233F77"/>
<path d="M732.594 139.287C732.594 139.287 739.145 145.794 742.296 147.948L741.398 150.005C741.398 150.005 732.105 146.83 727.804 141.805L732.594 139.287Z" fill="#FFB27D"/>
<path d="M739.96 147.368C739.96 147.368 742.638 147.553 743.219 148.257C743.799 148.961 744.089 151.263 743.372 151.02C742.655 150.778 738.645 149.185 738.645 149.185L739.96 147.368Z" fill="#FFB27D"/>
<path d="M743.797 129.443C743.798 129.341 743.83 129.241 743.888 129.157C743.946 129.073 744.027 129.007 744.122 128.969C744.217 128.931 744.322 128.921 744.422 128.942C744.523 128.962 744.615 129.012 744.687 129.085C744.759 129.157 744.808 129.249 744.828 129.349C744.847 129.45 744.837 129.553 744.797 129.648C744.758 129.742 744.691 129.822 744.606 129.879C744.52 129.936 744.42 129.966 744.317 129.966C744.249 129.965 744.181 129.952 744.118 129.925C744.054 129.899 743.997 129.86 743.948 129.811C743.9 129.763 743.862 129.705 743.836 129.642C743.81 129.579 743.797 129.511 743.797 129.443Z" fill="#C65447"/>
<path d="M743.797 137.824C743.798 137.722 743.83 137.622 743.888 137.538C743.946 137.454 744.027 137.388 744.122 137.35C744.217 137.312 744.322 137.302 744.422 137.323C744.523 137.343 744.615 137.393 744.687 137.466C744.759 137.538 744.808 137.63 744.828 137.731C744.847 137.831 744.837 137.934 744.797 138.029C744.758 138.123 744.691 138.203 744.606 138.26C744.52 138.317 744.42 138.347 744.317 138.347C744.249 138.346 744.181 138.333 744.118 138.306C744.054 138.28 743.997 138.241 743.948 138.192C743.9 138.144 743.862 138.086 743.836 138.023C743.81 137.96 743.797 137.892 743.797 137.824Z" fill="#C65447"/>
<path d="M739.375 106.878C739.375 106.878 739.848 105.253 740.949 105.195C742.049 105.138 745.693 107.312 746.751 106.334C747.809 105.355 748.548 105.006 749.006 105.692C749.464 106.377 749.843 102.29 749.711 102.205C749.578 102.119 740.774 100.885 740.774 100.885L738.275 102.673L737.895 105.197L739.375 106.878Z" fill="#1B2E59"/>
<path d="M744.573 183.719C744.573 183.719 743.072 184.345 740.791 184.362C739.173 184.373 737.568 184.078 736.061 183.492C736.061 183.492 734.746 174.231 733.96 166.309C733.513 161.805 733.238 157.733 733.472 156.045C734.12 151.389 736.229 148.698 738.889 148.922C741.55 149.147 744.038 150.999 744.224 153.246C744.41 155.494 744.573 183.719 744.573 183.719Z" fill="#0052B4"/>
<path d="M753.669 176.847C753.192 180.684 752.803 183.483 752.803 183.483C748.109 185.314 744.291 183.737 744.291 183.737C744.291 183.737 744.349 161.928 744.484 155.123C744.502 154.188 744.522 153.535 744.545 153.263C744.722 151.02 747.204 149.155 749.863 148.916C752.523 148.678 754.641 151.367 755.304 156.022C755.735 159.053 754.55 169.734 753.669 176.847Z" fill="#0052B4"/>
<path d="M736.25 130.298L735.263 133.816C734.082 136.178 732.867 138.671 732.576 139.458L730.059 140.788L727.275 142.259H727.192C727.023 141.351 729.943 124.453 733.806 121.548C733.92 121.448 734.04 121.354 734.165 121.268C735.413 123.633 737.707 128.546 736.25 130.298Z" fill="#35488B"/>
<path d="M734.58 140.749L733.337 141.839L730.129 144.643C728.355 144.503 727.075 142.388 727.075 142.388C727.701 141.38 728.658 140.647 729.612 140.124C730.61 139.585 731.682 139.193 732.794 138.963L734.58 140.749Z" fill="#35488B"/>
<path d="M734.58 140.749L733.337 141.838C731.183 141.822 729.61 140.127 729.61 140.127C730.608 139.587 731.68 139.196 732.793 138.966L734.58 140.749Z" fill="#233F77"/>
<path d="M761.505 142.391L758.912 141.089L757.067 140.163L755.733 139.492C755.335 138.589 754.001 135.764 753.173 134.146C753.359 134.955 753.541 135.783 753.717 136.609L751.792 129.443C750.937 128.181 752.744 122.038 753.123 120.794C753.54 120.968 753.918 121.225 754.233 121.548C754.626 121.977 755.513 123.456 756.535 125.538C758.68 129.902 761.422 136.894 761.505 142.391Z" fill="#35488B"/>
<path d="M761.505 142.391C761.505 142.391 760.223 144.506 758.451 144.645L754.804 141.453L754.001 140.752L755.52 139.022C756.361 139.174 757.184 139.412 757.976 139.732C759.241 140.239 760.687 141.074 761.505 142.391Z" fill="#35488B"/>
<path d="M757.976 139.73C757.976 139.73 756.264 141.237 754.804 141.453L754 140.752L755.52 139.022C756.361 139.173 757.184 139.411 757.976 139.73Z" fill="#233F77"/>
<path d="M753.665 176.847C753.189 180.684 752.8 183.482 752.8 183.482C748.105 185.314 744.287 183.736 744.287 183.736C744.287 183.736 744.345 161.927 744.48 155.123C744.631 154.463 744.72 154.07 744.733 154.02C744.703 154.446 743.395 174.096 753.665 176.847Z" fill="#4395F2"/>
<path d="M740.795 184.363C739.178 184.374 737.572 184.078 736.066 183.492C736.066 183.492 734.751 174.231 733.964 166.31C734.001 166.528 736.737 179.842 740.795 184.363Z" fill="#4395F2"/>
<path d="M756.537 125.544C758.68 129.902 761.422 136.901 761.505 142.391L758.912 141.089C758.971 141.036 759.034 140.986 759.098 140.94C761.744 139.037 756.664 125.871 756.537 125.544Z" fill="#233F77"/>
<path d="M953.461 187.234C953.431 187.236 953.401 187.236 953.372 187.234C953.261 187.239 953.151 187.207 953.061 187.143C952.97 187.078 952.904 186.986 952.873 186.879L947.226 162.585L946.816 160.815L948.748 160.731L949.375 164.052L953.73 186.906C953.734 186.945 953.73 186.985 953.719 187.023C953.708 187.06 953.689 187.096 953.664 187.126C953.639 187.157 953.608 187.182 953.573 187.2C953.538 187.219 953.5 187.23 953.461 187.234Z" fill="#E5BD9E"/>
<path d="M924.752 160.819L923.822 164.818L918.692 186.885C918.66 186.991 918.594 187.083 918.504 187.148C918.413 187.212 918.304 187.244 918.193 187.24C918.163 187.242 918.134 187.242 918.104 187.24C918.064 187.236 918.025 187.225 917.989 187.206C917.954 187.187 917.923 187.161 917.897 187.129C917.872 187.098 917.853 187.062 917.842 187.024C917.831 186.985 917.828 186.944 917.834 186.905L922.476 162.541L922.82 160.741L924.752 160.819Z" fill="#E5BD9E"/>
<path d="M924.752 160.819L923.822 164.817C923.794 164.358 923.657 163.913 923.424 163.516C923.19 163.119 922.865 162.783 922.476 162.535L922.82 160.735L924.752 160.819Z" fill="#CC9E7F"/>
<path d="M949.375 164.052C948.42 162.65 947.261 162.65 947.225 162.596L946.815 160.826L948.747 160.742L949.375 164.052Z" fill="#CC9E7F"/>
<path d="M920.915 160.993H948.888C949.552 160.993 950.189 160.73 950.658 160.263C951.128 159.796 951.392 159.162 951.392 158.501V156.502C951.392 155.841 951.128 155.207 950.658 154.74C950.189 154.273 949.552 154.01 948.888 154.01H920.915C920.251 154.01 919.615 154.273 919.145 154.74C918.676 155.207 918.412 155.84 918.412 156.5V158.501C918.412 158.828 918.477 159.152 918.602 159.454C918.728 159.757 918.912 160.031 919.145 160.263C919.377 160.494 919.653 160.678 919.957 160.803C920.261 160.928 920.586 160.993 920.915 160.993Z" fill="#C65447"/>
<path d="M934.563 98.8462C934.563 98.8462 929.411 97.7414 926.248 100.088C923.085 102.435 925.218 108.028 923.98 109.482C922.743 110.936 921.303 111.484 922.744 114.389C924.186 117.294 921.303 118.074 921.303 120.169C921.303 122.263 924.299 122.879 924.381 124.742C924.462 126.606 933.808 128.333 937.792 128.402C941.776 128.47 946.377 123.653 946.929 122.713C947.48 121.774 948.92 117.562 946.929 115.423C944.937 113.283 946.518 110.382 945.763 108.725C945.008 107.068 942.121 106.102 942.602 104.721C943.082 103.34 942.052 97.3264 934.563 98.8462Z" fill="#1B2E59"/>
<path d="M944.691 145.796C943.863 141.204 941.449 135.982 941.449 135.982C943.204 128.663 941.413 120.433 941.413 120.433C940.446 120.174 939.462 119.987 938.469 119.872C938.346 119.219 937.991 117.254 937.84 115.562C937.823 115.366 937.809 115.174 937.796 114.987C937.768 114.562 937.768 114.134 937.796 113.709L936.559 113.79L931.451 114.125L931.234 114.139C931.234 114.139 931.265 114.592 931.274 115.278C931.289 116.509 931.229 118.477 930.786 119.89C928.595 120.116 927.111 120.434 927.111 120.434C925.677 120.677 925.983 129.556 928.661 136.458C929.896 139.636 926.406 144.553 926.406 145.796C926.406 147.04 944.991 147.455 944.691 145.796Z" fill="#FFB27D"/>
<path d="M937.836 115.56C937.358 116.12 936.152 117.323 934.616 117.35C932.617 117.385 931.281 115.278 931.281 115.278C931.313 114.89 931.372 114.505 931.459 114.125L936.549 113.787C936.984 114.163 937.4 114.562 937.794 114.98C937.805 115.171 937.819 115.363 937.836 115.56Z" fill="#EF9E67"/>
<path d="M934.577 116.159C931.806 116.159 929.54 113.88 929.54 111.097V106.878C929.538 105.979 929.893 105.116 930.529 104.477C931.164 103.838 932.028 103.475 932.932 103.467H935.988C936.892 103.474 937.756 103.837 938.392 104.476C939.028 105.115 939.384 105.979 939.381 106.878V111.336C939.383 112.608 938.879 113.829 937.978 114.732C937.078 115.636 935.856 116.149 934.577 116.159Z" fill="#FFB27D"/>
<path d="M932.916 113.017C932.916 113.017 933.02 113.686 934.656 113.709C934.656 113.709 936.029 113.728 936.042 113.008C936.042 113 934.755 112.385 932.916 113.017Z" fill="white"/>
<path d="M934.756 102.081C934.756 102.081 934.318 107.311 929.682 108.425C925.047 109.54 929.089 99.5925 932.219 100.358C935.349 101.124 934.756 102.081 934.756 102.081Z" fill="#1B2E59"/>
<path d="M934.202 102.081C934.202 102.081 934.64 107.311 939.276 108.425C943.911 109.54 939.869 99.5925 936.739 100.358C933.609 101.124 934.202 102.081 934.202 102.081Z" fill="#1B2E59"/>
<path d="M920.882 154.013C920.882 154.013 924.271 146.129 927.374 144.588C930.478 143.047 942.833 144.416 944.688 145.797C946.543 147.178 948.916 154.013 948.916 154.013H920.882Z" fill="#22356B"/>
<path d="M923.982 154.012C923.982 154.012 925.19 149.283 927.879 149.077C930.568 148.871 934.157 151.371 935.434 150.698C936.711 150.025 939.145 148.336 941.406 148.767C943.666 149.197 947.067 154.012 947.067 154.012H923.982Z" fill="#1B2E59"/>
<path d="M936.034 183.805L932.827 183.847C932.827 183.847 931.324 178.709 929.663 172.712C929.509 172.151 929.35 171.582 929.194 171.009C927.821 166.009 926.426 160.702 925.743 157.427C925.58 156.642 925.462 155.932 925.393 155.287C924.747 149.658 927.27 149.19 927.874 149.078C928.547 148.956 932.666 147.055 934.969 154.406C935.746 156.882 936.849 163.704 936.435 170.078C936.036 176.205 936.034 183.805 936.034 183.805Z" fill="#FFB27D"/>
<path d="M943.536 170.432C942.2 177.401 940.703 184.003 940.703 184.003L936.981 183.636C936.981 183.636 936.743 177.715 936.172 171.185C936.127 170.666 936.131 170.141 936.113 169.615C935.931 164.659 935.801 159.534 935.877 156.35C936.069 148.527 939.174 148.678 939.856 148.713C940.538 148.748 944.98 147.847 945.544 155.526C945.733 158.024 944.698 164.366 943.536 170.432Z" fill="#FFB27D"/>
<path d="M929.661 172.712C929.507 172.151 929.348 171.581 929.192 171.008C927.819 166.008 926.424 160.702 925.742 157.426C925.578 156.641 925.46 155.932 925.391 155.287C925.461 155.52 929.985 170.275 934.512 171.371C937.416 172.075 933.141 172.497 929.661 172.712Z" fill="#EF9E67"/>
<path d="M936.172 171.185C936.153 170.665 936.131 170.14 936.113 169.615C935.931 164.658 935.802 159.534 935.878 156.35C935.878 156.35 936.805 169.853 941.411 170.888C944.455 171.573 939.724 171.388 936.172 171.185Z" fill="#EF9E67"/>
<path d="M943.538 170.432C942.778 174.388 941.969 178.224 941.41 180.807C940.987 182.77 940.705 184.005 940.705 184.005L936.759 183.701C936.759 183.701 936.416 177.714 936.439 170.073C936.969 170.317 938.174 170.578 940.599 170.559C941.426 170.552 942.399 170.516 943.538 170.432Z" fill="#E9F3FE"/>
<path d="M941.41 180.804C940.987 182.767 940.705 184.002 940.705 184.002L936.759 183.698C936.759 183.698 936.104 177.512 936.127 169.871C936.656 170.115 938.174 170.572 940.6 170.557C940.597 170.557 938.91 178.388 941.41 180.804Z" fill="#C7DCF2"/>
<path d="M940.965 186.083C940.965 186.24 940.965 186.386 940.965 186.513C940.964 186.583 940.948 186.651 940.919 186.714C940.891 186.777 940.85 186.834 940.798 186.881C940.747 186.928 940.687 186.964 940.622 186.987C940.556 187.011 940.486 187.021 940.417 187.017L936.612 186.77C936.476 186.761 936.35 186.7 936.259 186.599C936.169 186.499 936.122 186.366 936.128 186.232C936.143 185.99 936.169 185.749 936.207 185.51C936.291 184.968 936.44 184.438 936.65 183.931C936.68 183.859 936.726 183.795 936.784 183.744C936.843 183.692 936.913 183.655 936.988 183.635C938.922 183.134 940.106 183.635 940.53 183.885C940.587 183.916 940.636 183.959 940.676 184.01C940.716 184.062 940.746 184.12 940.762 184.183C940.908 184.806 940.976 185.444 940.965 186.083Z" fill="#35488B"/>
<path d="M940.611 184.047C940.611 184.047 940.188 183.255 938.928 183.035C938.562 182.97 938.185 182.996 937.831 183.111C937.477 183.226 937.157 183.426 936.9 183.694L936.676 183.869C936.711 183.827 937.581 182.59 938.963 182.832C939.353 182.887 939.722 183.04 940.036 183.277C940.35 183.513 940.598 183.825 940.757 184.183L940.611 184.047Z" fill="#35488B"/>
<path d="M940.966 186.083C940.966 186.24 940.966 186.386 940.966 186.513C940.965 186.582 940.949 186.651 940.92 186.714C940.892 186.777 940.851 186.834 940.8 186.881C940.748 186.928 940.688 186.964 940.623 186.987C940.557 187.011 940.488 187.021 940.418 187.017L936.613 186.77C936.477 186.761 936.351 186.7 936.26 186.599C936.17 186.498 936.123 186.366 936.129 186.231C936.144 185.99 936.17 185.749 936.208 185.509C936.208 185.509 936.407 186.388 938.723 186.508C940.116 186.578 940.715 186.306 940.966 186.083Z" fill="#22356B"/>
<path d="M936.034 183.804L932.793 184.32L931.965 184.46C931.965 184.46 931.03 177.708 929.193 171.015C931.547 171.264 933.927 170.942 936.129 170.077C936.394 176.899 936.034 183.804 936.034 183.804Z" fill="#E9F3FE"/>
<path d="M932.793 184.321L931.966 184.461C931.966 184.461 931.03 177.709 929.193 171.015C930.599 171.173 932.021 171.119 933.41 170.854C933.41 170.854 931.77 180.631 932.793 184.321Z" fill="#C7DCF2"/>
<path d="M936.649 185.615C936.683 185.769 936.711 185.911 936.735 186.035C936.748 186.103 936.748 186.173 936.734 186.241C936.72 186.308 936.692 186.373 936.653 186.43C936.613 186.486 936.563 186.535 936.504 186.572C936.446 186.61 936.38 186.635 936.312 186.647L932.543 187.233C932.41 187.253 932.273 187.221 932.164 187.142C932.054 187.063 931.98 186.945 931.957 186.812C931.918 186.573 931.892 186.332 931.878 186.09C931.843 185.542 931.874 184.993 931.971 184.452C931.985 184.376 932.016 184.303 932.062 184.24C932.108 184.177 932.168 184.126 932.238 184.089C934.018 183.182 935.282 183.416 935.75 183.565C935.812 183.584 935.87 183.615 935.919 183.656C935.969 183.698 936.01 183.749 936.04 183.806C936.316 184.382 936.521 184.989 936.649 185.615Z" fill="#35488B"/>
<path d="M935.865 183.706C935.865 183.699 935.288 183.023 934.004 183.083C933.632 183.099 933.269 183.207 932.948 183.396C932.627 183.585 932.358 183.85 932.165 184.167L931.983 184.386C932.01 184.337 932.594 182.94 933.994 182.876C934.386 182.846 934.779 182.915 935.137 183.078C935.494 183.241 935.804 183.492 936.037 183.807L935.865 183.706Z" fill="#35488B"/>
<path d="M936.649 185.615C936.683 185.769 936.711 185.911 936.735 186.036C936.748 186.104 936.748 186.173 936.734 186.241C936.72 186.309 936.692 186.373 936.653 186.43C936.613 186.487 936.563 186.535 936.504 186.573C936.446 186.61 936.38 186.635 936.312 186.647L932.543 187.233C932.41 187.254 932.273 187.221 932.164 187.143C932.054 187.064 931.98 186.945 931.957 186.812C931.918 186.573 931.892 186.332 931.878 186.09C931.878 186.09 932.26 186.906 934.548 186.511C935.926 186.284 936.452 185.889 936.649 185.615Z" fill="#22356B"/>
<path d="M951.673 142.391L947.238 140.162L945.902 139.492C945.506 138.589 944.17 135.764 943.344 134.146C943.597 135.256 943.845 136.402 944.079 137.527C944.99 141.898 945.68 146.01 945.573 146.89C945.328 148.895 937.54 147.992 935.523 147.51C933.507 147.028 928.943 148.131 925.289 148.061C923.186 148.022 923.831 142.139 924.757 137.154C924.977 135.96 925.217 134.814 925.437 133.816C924.256 136.177 923.041 138.671 922.749 139.458L920.232 140.789L917.377 142.299C917.371 142.287 917.367 142.274 917.365 142.261C917.194 141.363 920.115 124.455 923.979 121.547C924.755 120.931 925.648 120.479 926.605 120.22C927.562 119.96 928.563 119.899 929.545 120.038C929.545 120.038 930.813 122.308 934.478 122.479C935.533 122.538 936.587 122.357 937.561 121.949C938.535 121.541 939.402 120.917 940.097 120.125C940.097 120.125 943.16 120.201 944.396 121.547C945.632 122.893 951.55 134.263 951.673 142.391Z" fill="#0052B4"/>
<path d="M945.571 146.89C945.325 148.895 937.537 147.992 935.521 147.509C933.504 147.027 928.941 148.13 925.286 148.06C923.183 148.021 923.829 142.138 924.755 137.154C924.755 137.154 928.716 144.125 933.655 144.077C938.593 144.029 944.084 137.527 944.084 137.527C944.982 141.9 945.678 146.009 945.571 146.89Z" fill="#B5493F"/>
<path d="M946.164 139.459C946.164 139.459 938.694 144.882 935.255 146.524L935.83 148.696C935.83 148.696 946.532 146.565 951.547 142.262L946.164 139.459Z" fill="#0052B4"/>
<path d="M935.255 146.527C935.255 146.527 932.687 145.728 931.896 146.176C931.106 146.625 930.006 148.665 930.769 148.7C931.531 148.735 935.842 148.7 935.842 148.7L935.255 146.527Z" fill="#0052B4"/>
<path d="M931.089 118.558C931.089 118.558 932.807 121.95 934.481 122.484C934.481 122.484 932.101 123.388 928.631 119.973C928.881 119.544 929.239 119.187 929.67 118.939C930.102 118.691 930.591 118.56 931.089 118.558Z" fill="#E6F1FF"/>
<path d="M925.435 133.816C924.254 136.177 923.039 138.671 922.747 139.457L920.23 140.788C920.054 140.715 919.913 140.578 919.837 140.404C919.08 138.885 925.435 133.816 925.435 133.816Z" fill="#B5493F"/>
<path d="M938.229 118.531C938.229 118.531 936.155 121.951 934.48 122.481C934.48 122.481 937.178 123.577 940.647 120.162C940.647 120.169 939.996 118.569 938.229 118.531Z" fill="#E6F1FF"/>
<path d="M947.917 139.937C947.708 140.059 947.475 140.135 947.234 140.159L945.898 139.489C945.502 138.586 944.165 135.761 943.34 134.143C943.34 134.145 949.669 138.955 947.917 139.937Z" fill="#B5493F"/>
<path d="M922.746 139.459C922.746 139.459 930.215 144.882 933.654 146.524L933.079 148.696C933.079 148.696 922.378 146.565 917.362 142.262L922.746 139.459Z" fill="#FFB27D"/>
<path d="M933.656 146.527C933.656 146.527 936.224 145.728 937.014 146.176C937.805 146.625 938.904 148.665 938.142 148.7C937.379 148.735 933.068 148.7 933.068 148.7L933.656 146.527Z" fill="#FFB27D"/>
<path d="M924.742 140.749L923.499 141.839L920.293 144.643C918.517 144.503 917.237 142.39 917.237 142.39C917.865 141.382 918.82 140.648 919.774 140.125C920.772 139.586 921.845 139.195 922.957 138.964L924.742 140.749Z" fill="#E6F1FF"/>
<path d="M951.673 142.391C951.673 142.391 950.392 144.505 948.619 144.644L944.973 141.453L944.168 140.752L945.687 139.019C946.529 139.172 947.352 139.41 948.144 139.73C949.408 140.239 950.855 141.075 951.673 142.391Z" fill="#E6F1FF"/>
<path d="M948.144 139.73C948.144 139.73 946.431 141.237 944.973 141.453L944.168 140.752L945.687 139.019C946.528 139.172 947.351 139.41 948.144 139.73Z" fill="#C7DCF2"/>
<path d="M924.742 140.749L923.499 141.838C921.346 141.822 919.773 140.127 919.773 140.127C920.771 139.587 921.843 139.196 922.955 138.966L924.742 140.749Z" fill="#C7DCF2"/>
<path d="M934.239 122.469C934.24 122.415 934.256 122.363 934.286 122.318C934.316 122.274 934.359 122.239 934.409 122.219C934.459 122.198 934.514 122.193 934.567 122.204C934.62 122.214 934.668 122.24 934.707 122.279C934.745 122.317 934.771 122.365 934.781 122.418C934.791 122.471 934.786 122.525 934.765 122.575C934.744 122.624 934.709 122.667 934.664 122.697C934.62 122.726 934.567 122.742 934.513 122.742C934.44 122.742 934.371 122.713 934.319 122.662C934.268 122.611 934.239 122.541 934.239 122.469Z" fill="#35488B"/>
<path d="M933.96 129.443C933.961 129.341 933.992 129.241 934.05 129.156C934.107 129.072 934.189 129.006 934.284 128.968C934.379 128.929 934.483 128.92 934.584 128.94C934.685 128.96 934.777 129.01 934.849 129.083C934.921 129.155 934.971 129.247 934.99 129.348C935.01 129.448 934.999 129.552 934.96 129.646C934.921 129.74 934.854 129.821 934.768 129.877C934.683 129.934 934.583 129.964 934.48 129.964C934.342 129.964 934.209 129.908 934.112 129.81C934.014 129.713 933.96 129.58 933.96 129.443Z" fill="#A53D38"/>
<path d="M933.96 137.824C933.961 137.722 933.992 137.622 934.05 137.538C934.108 137.454 934.19 137.388 934.285 137.35C934.38 137.312 934.484 137.302 934.585 137.323C934.685 137.343 934.777 137.393 934.85 137.466C934.922 137.538 934.971 137.63 934.99 137.731C935.01 137.831 934.999 137.934 934.96 138.029C934.92 138.123 934.854 138.203 934.768 138.26C934.683 138.317 934.583 138.347 934.48 138.347C934.411 138.346 934.343 138.333 934.28 138.306C934.217 138.28 934.159 138.241 934.111 138.192C934.063 138.144 934.025 138.086 933.999 138.023C933.973 137.96 933.96 137.892 933.96 137.824Z" fill="#A53D38"/>
<path d="M828.726 98.7281C828.726 98.7281 822.254 97.3849 821.036 102.934C820.027 107.527 824.881 113.44 824.881 113.44H833.478C833.478 113.44 843.085 97.5952 828.726 98.7281Z" fill="#1B2E59"/>
<path d="M848.041 187.234C848.012 187.236 847.982 187.236 847.952 187.234C847.841 187.239 847.732 187.207 847.641 187.143C847.551 187.078 847.485 186.986 847.454 186.879L841.806 162.585L841.396 160.815L843.328 160.731L843.958 164.043L848.315 186.896C848.32 186.936 848.317 186.977 848.306 187.016C848.295 187.056 848.277 187.092 848.251 187.124C848.225 187.155 848.194 187.181 848.158 187.2C848.122 187.219 848.082 187.231 848.041 187.234Z" fill="#E5BD9E"/>
<path d="M819.333 160.819L818.403 164.818L813.273 186.885C813.242 186.991 813.176 187.084 813.085 187.148C812.995 187.212 812.886 187.245 812.774 187.24C812.745 187.242 812.715 187.242 812.686 187.24C812.646 187.236 812.607 187.225 812.571 187.206C812.535 187.187 812.504 187.161 812.479 187.129C812.454 187.098 812.435 187.062 812.424 187.024C812.413 186.985 812.41 186.944 812.415 186.905L817.057 162.541L817.401 160.741L819.333 160.819Z" fill="#E5BD9E"/>
<path d="M819.333 160.819L818.403 164.817C818.375 164.358 818.239 163.913 818.005 163.516C817.771 163.119 817.447 162.783 817.057 162.535L817.401 160.735L819.333 160.819Z" fill="#CC9E7F"/>
<path d="M843.956 164.052C843.002 162.65 841.842 162.65 841.807 162.596L841.397 160.826L843.329 160.742L843.956 164.052Z" fill="#CC9E7F"/>
<path d="M843.464 160.993H815.493C814.11 160.993 812.988 159.877 812.988 158.501V156.502C812.988 155.126 814.11 154.01 815.493 154.01H843.464C844.847 154.01 845.968 155.126 845.968 156.502V158.501C845.968 159.877 844.847 160.993 843.464 160.993Z" fill="#C65447"/>
<path d="M839.272 145.796C838.445 141.204 836.031 135.982 836.031 135.982C837.785 128.663 835.994 120.433 835.994 120.433C835.028 120.174 834.044 119.987 833.05 119.872C832.927 119.219 832.572 117.254 832.421 115.562C832.405 115.366 832.39 115.174 832.378 114.987C832.349 114.562 832.349 114.134 832.378 113.709L831.14 113.79L826.05 114.128L825.833 114.142C825.833 114.142 825.864 114.595 825.872 115.28C825.888 116.511 825.827 118.48 825.385 119.893C823.193 120.119 821.711 120.437 821.711 120.437C820.276 120.68 820.583 129.559 823.261 136.461C824.495 139.638 821.006 144.555 821.006 145.799C821.006 147.043 839.572 147.455 839.272 145.796Z" fill="#FFB27D"/>
<path d="M832.417 115.56C831.94 116.12 830.726 117.323 829.197 117.35C827.199 117.385 825.863 115.278 825.863 115.278C825.895 114.89 825.954 114.505 826.04 114.125L831.131 113.787C831.566 114.163 831.982 114.562 832.377 114.98C832.386 115.171 832.401 115.363 832.417 115.56Z" fill="#EF9E67"/>
<path d="M829.158 116.159C826.387 116.159 824.121 113.88 824.121 111.097V106.878C824.119 105.979 824.474 105.116 825.11 104.477C825.745 103.838 826.61 103.475 827.513 103.467H830.57C831.474 103.475 832.338 103.838 832.974 104.477C833.609 105.116 833.965 105.979 833.962 106.878V111.336C833.964 112.608 833.46 113.829 832.56 114.732C831.659 115.636 830.437 116.149 829.158 116.159Z" fill="#FFB27D"/>
<path d="M815.464 154.013C815.464 154.013 818.846 146.129 821.956 144.588C825.067 143.047 837.415 144.416 839.27 145.797C841.125 147.178 843.498 154.013 843.498 154.013H815.464Z" fill="#22356B"/>
<path d="M818.557 154.012C818.557 154.012 819.765 149.283 822.455 149.077C825.146 148.871 828.734 151.371 830.01 150.698C831.285 150.025 833.72 148.336 835.981 148.767C838.241 149.197 841.644 154.012 841.644 154.012H818.557Z" fill="#1B2E59"/>
<path d="M830.616 183.805L827.409 183.847C827.409 183.847 825.906 178.709 824.245 172.712C824.091 172.151 823.932 171.582 823.776 171.009C822.403 166.009 821.008 160.702 820.326 157.427C820.162 156.642 820.044 155.932 819.975 155.287C819.329 149.658 821.852 149.19 822.456 149.078C823.129 148.956 827.248 147.055 829.551 154.406C830.328 156.882 831.431 163.704 831.017 170.078C830.618 176.205 830.616 183.805 830.616 183.805Z" fill="#FFB27D"/>
<path d="M838.118 170.432C836.782 177.401 835.285 184.003 835.285 184.003L831.563 183.636C831.563 183.636 831.325 177.715 830.754 171.185C830.709 170.666 830.714 170.141 830.695 169.615C830.513 164.659 830.384 159.534 830.46 156.35C830.652 148.527 833.756 148.678 834.438 148.713C835.121 148.748 839.564 147.847 840.132 155.526C840.315 158.024 839.282 164.366 838.118 170.432Z" fill="#FFB27D"/>
<path d="M824.242 172.712C824.088 172.151 823.929 171.581 823.773 171.008C822.4 166.008 821.005 160.702 820.322 157.426C820.159 156.641 820.041 155.932 819.972 155.287C820.042 155.52 824.566 170.275 829.093 171.371C831.997 172.075 827.723 172.497 824.242 172.712Z" fill="#EF9E67"/>
<path d="M830.753 171.185C830.734 170.665 830.712 170.14 830.694 169.615C830.512 164.658 830.383 159.534 830.459 156.35C830.459 156.35 831.386 169.853 835.992 170.888C839.036 171.573 834.305 171.388 830.753 171.185Z" fill="#EF9E67"/>
<path d="M838.115 170.432C837.355 174.388 836.546 178.224 835.987 180.807C835.564 182.77 835.282 184.005 835.282 184.005L831.336 183.701C831.336 183.701 830.993 177.714 831.016 170.073C831.546 170.317 832.752 170.578 835.176 170.559C836.004 170.552 836.976 170.516 838.115 170.432Z" fill="#E9F3FE"/>
<path d="M835.986 180.804C835.564 182.767 835.282 184.002 835.282 184.002L831.336 183.698C831.336 183.698 830.68 177.512 830.703 169.871C831.233 170.115 832.752 170.572 835.176 170.557C835.173 170.557 833.486 178.388 835.986 180.804Z" fill="#C7DCF2"/>
<path d="M835.546 186.083C835.546 186.24 835.546 186.386 835.546 186.513C835.545 186.583 835.529 186.651 835.5 186.714C835.472 186.777 835.431 186.834 835.38 186.881C835.328 186.928 835.268 186.964 835.203 186.987C835.137 187.011 835.068 187.021 834.998 187.017L831.193 186.77C831.057 186.762 830.931 186.7 830.84 186.6C830.75 186.499 830.704 186.366 830.711 186.232C830.755 185.441 830.931 184.664 831.232 183.931C831.262 183.859 831.308 183.795 831.366 183.744C831.424 183.692 831.494 183.655 831.569 183.635C833.503 183.134 834.687 183.635 835.111 183.885C835.168 183.916 835.218 183.959 835.257 184.01C835.297 184.062 835.327 184.12 835.343 184.183C835.489 184.806 835.557 185.444 835.546 186.083Z" fill="#35488B"/>
<path d="M835.192 184.047C835.192 184.047 834.769 183.255 833.509 183.035C833.143 182.97 832.766 182.996 832.412 183.111C832.058 183.226 831.738 183.426 831.481 183.694L831.257 183.869C831.294 183.827 832.162 182.59 833.544 182.832C833.934 182.887 834.303 183.04 834.617 183.277C834.931 183.513 835.179 183.825 835.338 184.183L835.192 184.047Z" fill="#35488B"/>
<path d="M835.542 186.083C835.542 186.24 835.542 186.386 835.542 186.513C835.541 186.582 835.525 186.651 835.497 186.714C835.468 186.777 835.427 186.834 835.376 186.881C835.325 186.928 835.264 186.964 835.199 186.987C835.133 187.011 835.064 187.021 834.994 187.017L831.189 186.77C831.054 186.761 830.927 186.7 830.837 186.599C830.746 186.498 830.7 186.366 830.707 186.231C830.72 185.989 830.746 185.748 830.785 185.509C830.785 185.509 830.983 186.388 833.3 186.508C834.694 186.578 835.292 186.306 835.542 186.083Z" fill="#22356B"/>
<path d="M830.615 183.804L827.373 184.32L826.546 184.46C826.546 184.46 825.61 177.708 823.774 171.015C826.128 171.264 828.508 170.942 830.711 170.077C830.974 176.899 830.615 183.804 830.615 183.804Z" fill="#E9F3FE"/>
<path d="M827.374 184.321L826.547 184.461C826.547 184.461 825.611 177.709 823.774 171.015C825.18 171.173 826.602 171.119 827.991 170.854C827.991 170.854 826.351 180.631 827.374 184.321Z" fill="#C7DCF2"/>
<path d="M831.23 185.615C831.264 185.769 831.292 185.911 831.316 186.035C831.329 186.103 831.329 186.173 831.315 186.241C831.301 186.308 831.273 186.373 831.234 186.43C831.194 186.486 831.144 186.535 831.085 186.572C831.027 186.61 830.962 186.635 830.893 186.647L827.125 187.233C826.991 187.253 826.854 187.221 826.745 187.142C826.635 187.063 826.561 186.945 826.538 186.812C826.499 186.573 826.473 186.332 826.459 186.09C826.424 185.542 826.456 184.993 826.552 184.452C826.566 184.376 826.597 184.303 826.644 184.24C826.69 184.177 826.75 184.126 826.819 184.089C828.599 183.182 829.863 183.416 830.331 183.565C830.393 183.584 830.451 183.615 830.501 183.657C830.551 183.698 830.592 183.749 830.622 183.806C830.898 184.382 831.102 184.99 831.23 185.615Z" fill="#35488B"/>
<path d="M830.444 183.706C830.444 183.699 829.867 183.023 828.583 183.083C828.212 183.101 827.851 183.208 827.531 183.397C827.211 183.586 826.944 183.851 826.751 184.167L826.569 184.386C826.596 184.337 827.18 182.94 828.58 182.876C828.972 182.846 829.365 182.915 829.723 183.078C830.08 183.241 830.39 183.492 830.623 183.807L830.444 183.706Z" fill="#35488B"/>
<path d="M831.23 185.615C831.264 185.769 831.292 185.911 831.316 186.036C831.329 186.104 831.329 186.173 831.315 186.241C831.301 186.309 831.273 186.373 831.234 186.43C831.194 186.487 831.144 186.535 831.085 186.573C831.027 186.61 830.962 186.635 830.893 186.647L827.125 187.233C826.991 187.254 826.854 187.221 826.745 187.143C826.635 187.064 826.561 186.945 826.538 186.812C826.499 186.573 826.473 186.332 826.459 186.09C826.459 186.09 826.841 186.906 829.129 186.511C830.507 186.284 831.033 185.889 831.23 185.615Z" fill="#22356B"/>
<path d="M846.249 142.391L841.811 140.162L840.476 139.492C840.08 138.589 838.744 135.764 837.918 134.146C838.172 135.256 838.422 136.402 838.654 137.527C839.565 141.898 840.255 146.01 840.148 146.89C839.903 148.895 832.108 147.992 830.098 147.51C828.088 147.028 823.518 148.131 819.863 148.061C817.761 148.022 818.406 142.139 819.332 137.154C819.552 135.96 819.792 134.814 820.011 133.816C818.83 136.177 817.616 138.671 817.324 139.458L814.807 140.789L811.953 142.299C811.946 142.287 811.942 142.274 811.94 142.261C811.768 141.363 814.69 124.455 818.554 121.547C819.329 120.931 820.223 120.479 821.18 120.22C822.137 119.96 823.138 119.899 824.12 120.038C824.12 120.038 825.388 122.308 829.052 122.479C830.107 122.538 831.162 122.357 832.136 121.949C833.109 121.541 833.977 120.917 834.671 120.125C834.671 120.125 837.734 120.201 838.97 121.547C840.206 122.893 846.126 134.263 846.249 142.391Z" fill="#0052B4"/>
<path d="M840.152 146.89C839.907 148.895 832.112 147.992 830.102 147.509C828.092 147.027 823.522 148.13 819.868 148.06C817.765 148.021 818.41 142.138 819.336 137.154C819.336 137.154 823.298 144.125 828.236 144.077C833.175 144.029 838.665 137.527 838.665 137.527C839.564 141.9 840.259 146.009 840.152 146.89Z" fill="#B5493F"/>
<path d="M840.746 139.459C840.746 139.459 833.276 144.882 829.838 146.524L830.413 148.696C830.413 148.696 841.114 146.565 846.129 142.262L840.746 139.459Z" fill="#FFB27D"/>
<path d="M829.838 146.527C829.838 146.527 827.27 145.728 826.479 146.176C825.689 146.625 824.589 148.665 825.345 148.7C826.1 148.735 830.418 148.7 830.418 148.7L829.838 146.527Z" fill="#0052B4"/>
<path d="M825.666 118.558C825.666 118.558 827.385 121.95 829.058 122.484C829.058 122.484 826.678 123.388 823.208 119.973C823.457 119.544 823.816 119.187 824.247 118.939C824.678 118.691 825.168 118.56 825.666 118.558Z" fill="#E6F1FF"/>
<path d="M820.012 133.816C818.831 136.177 817.616 138.671 817.324 139.457L814.807 140.788C814.631 140.715 814.49 140.577 814.414 140.404C813.657 138.885 820.012 133.816 820.012 133.816Z" fill="#B5493F"/>
<path d="M832.882 118.558C832.882 118.558 830.733 121.95 829.058 122.484C829.058 122.484 831.869 123.388 835.338 119.973C835.089 119.544 834.731 119.187 834.3 118.939C833.869 118.691 833.38 118.559 832.882 118.558Z" fill="#E6F1FF"/>
<path d="M842.498 139.937C842.289 140.059 842.055 140.135 841.813 140.159L840.479 139.489C840.083 138.586 838.747 135.761 837.921 134.143C837.921 134.145 844.25 138.955 842.498 139.937Z" fill="#B5493F"/>
<path d="M817.328 139.459C817.328 139.459 824.797 144.882 828.236 146.524L827.661 148.696C827.661 148.696 816.96 146.565 811.944 142.262L817.328 139.459Z" fill="#FFB27D"/>
<path d="M828.233 146.527C828.233 146.527 830.801 145.728 831.591 146.176C832.382 146.625 833.481 148.665 832.719 148.7C831.956 148.735 827.645 148.7 827.645 148.7L828.233 146.527Z" fill="#FFB27D"/>
<path d="M819.323 140.749L818.08 141.839L814.874 144.643C813.098 144.503 811.819 142.39 811.819 142.39C812.446 141.382 813.401 140.648 814.355 140.125C815.354 139.586 816.426 139.195 817.538 138.964L819.323 140.749Z" fill="#E6F1FF"/>
<path d="M846.249 142.391C846.249 142.391 844.968 144.505 843.195 144.644L839.549 141.453L838.744 140.752L840.265 139.019C841.107 139.172 841.93 139.41 842.723 139.73C843.984 140.239 845.432 141.075 846.249 142.391Z" fill="#E6F1FF"/>
<path d="M842.725 139.73C842.725 139.73 841.011 141.237 839.552 141.453L838.747 140.752L840.268 139.019C841.109 139.172 841.932 139.41 842.725 139.73Z" fill="#C7DCF2"/>
<path d="M819.323 140.749L818.08 141.838C815.927 141.822 814.354 140.127 814.354 140.127C815.352 139.587 816.424 139.196 817.536 138.966L819.323 140.749Z" fill="#C7DCF2"/>
<path d="M828.82 122.469C828.821 122.415 828.837 122.363 828.867 122.318C828.897 122.274 828.94 122.239 828.99 122.219C829.04 122.198 829.095 122.193 829.148 122.204C829.201 122.214 829.25 122.24 829.288 122.279C829.326 122.317 829.352 122.365 829.362 122.418C829.372 122.471 829.367 122.525 829.346 122.575C829.326 122.624 829.29 122.667 829.246 122.697C829.201 122.726 829.148 122.742 829.094 122.742C829.022 122.74 828.953 122.711 828.902 122.66C828.851 122.609 828.822 122.541 828.82 122.469Z" fill="#35488B"/>
<path d="M828.541 129.443C828.542 129.341 828.573 129.241 828.631 129.156C828.688 129.072 828.77 129.006 828.865 128.968C828.96 128.929 829.064 128.92 829.165 128.94C829.266 128.96 829.358 129.01 829.43 129.083C829.503 129.155 829.552 129.247 829.571 129.348C829.591 129.448 829.581 129.552 829.541 129.646C829.502 129.74 829.435 129.821 829.349 129.877C829.264 129.934 829.164 129.964 829.061 129.964C828.923 129.964 828.79 129.908 828.693 129.81C828.595 129.713 828.541 129.58 828.541 129.443Z" fill="#A53D38"/>
<path d="M828.541 137.824C828.542 137.722 828.574 137.622 828.631 137.538C828.689 137.454 828.771 137.388 828.866 137.35C828.961 137.312 829.065 137.302 829.166 137.323C829.266 137.343 829.359 137.393 829.431 137.466C829.503 137.538 829.552 137.63 829.571 137.731C829.591 137.831 829.58 137.934 829.541 138.029C829.501 138.123 829.435 138.203 829.349 138.26C829.264 138.317 829.164 138.347 829.061 138.347C828.992 138.346 828.924 138.333 828.861 138.306C828.798 138.28 828.74 138.241 828.692 138.192C828.644 138.144 828.606 138.086 828.58 138.023C828.554 137.96 828.541 137.892 828.541 137.824Z" fill="#A53D38"/>
<path d="M822.482 104.987C822.482 104.987 816.353 105.613 817.983 111.577C819.614 117.541 818.777 118.564 818.777 118.564C819.254 118.537 819.705 118.338 820.045 118.003C820.045 118.003 819.763 118.454 818.699 120.13C816.454 123.673 822.172 125.748 822.172 125.748C822.172 125.748 821.258 123.409 822.807 122.59C825.767 121.023 827.014 116.95 825.158 115.15C820.901 111.019 822.482 104.987 822.482 104.987Z" fill="#1B2E59"/>
<path d="M835.332 104.987C835.332 104.987 841.463 105.613 839.832 111.577C838.201 117.541 839.037 118.564 839.037 118.564C838.56 118.537 838.109 118.338 837.769 118.003C837.769 118.003 838.051 118.454 839.116 120.13C841.361 123.673 835.642 125.748 835.642 125.748C835.642 125.748 836.555 123.409 835.008 122.59C832.048 121.023 830.8 116.95 832.657 115.15C836.92 111.019 835.332 104.987 835.332 104.987Z" fill="#1B2E59"/>
<path d="M824.122 107.996C824.122 107.996 827.448 108.348 828.56 107.614C828.56 107.614 829.29 105.411 828.56 104.836C828.56 104.836 829.925 106.018 829.67 107.581C829.67 107.581 831.743 107.518 832.207 107.263C832.207 107.263 832.066 106.273 831.793 105.861C831.793 105.861 832.506 106.659 832.664 107.234C832.664 107.234 834.188 107.394 834.506 106.813C834.823 106.233 832.06 99.242 827.676 101.195C823.292 103.148 822.86 106.784 824.122 107.996Z" fill="#1B2E59"/>
<path d="M820.924 104.849C820.924 104.849 820.29 105.23 820.332 105.636C820.374 106.041 821.871 107.444 821.871 107.444L820.924 104.849Z" fill="#C65447"/>
<path d="M836.58 104.849C836.58 104.849 837.213 105.23 837.171 105.636C837.129 106.041 835.633 107.444 835.633 107.444L836.58 104.849Z" fill="#C65447"/>
<path d="M710.897 99.9791C710.897 99.9791 707.328 97.9055 704.837 99.3706C702.347 100.836 699.309 109.997 699.775 111.874C700.242 113.752 702.267 115.159 702.267 115.159C702.267 115.159 701.975 114.049 702.267 113.273C702.267 113.273 702.564 115.409 704.172 116.078C705.78 116.746 711.812 117.24 713.051 116.938C714.473 116.591 715.328 116.129 715.93 114.537C716.532 112.944 720.253 98.5476 710.897 99.9791Z" fill="#1B2E59"/>
<path d="M727.737 187.234C727.708 187.236 727.678 187.236 727.649 187.234C727.537 187.239 727.428 187.207 727.337 187.143C727.247 187.078 727.181 186.986 727.15 186.879L721.501 162.585L721.091 160.815L723.022 160.731L723.653 164.043L728.008 186.896C728.013 186.936 728.011 186.977 728 187.016C727.989 187.055 727.971 187.091 727.945 187.123C727.92 187.154 727.889 187.18 727.853 187.2C727.817 187.219 727.778 187.23 727.737 187.234Z" fill="#E5BD9E"/>
<path d="M699.027 160.819L698.098 164.818L692.967 186.885C692.936 186.991 692.869 187.084 692.779 187.148C692.688 187.213 692.579 187.245 692.468 187.24C692.438 187.242 692.409 187.242 692.379 187.24C692.339 187.236 692.3 187.225 692.264 187.206C692.229 187.187 692.198 187.161 692.173 187.129C692.147 187.098 692.129 187.062 692.118 187.023C692.107 186.985 692.105 186.944 692.11 186.905L696.751 162.541L697.096 160.741L699.027 160.819Z" fill="#E5BD9E"/>
<path d="M699.027 160.819L698.098 164.817C698.07 164.358 697.933 163.912 697.699 163.516C697.465 163.119 697.14 162.783 696.751 162.535L697.096 160.735L699.027 160.819Z" fill="#CC9E7F"/>
<path d="M723.649 164.052C722.694 162.65 721.535 162.65 721.499 162.596L721.089 160.826L723.019 160.742L723.649 164.052Z" fill="#CC9E7F"/>
<path d="M723.162 160.993H695.191C693.808 160.993 692.687 159.877 692.687 158.501V156.502C692.687 155.126 693.808 154.01 695.191 154.01H723.162C724.545 154.01 725.666 155.126 725.666 156.502V158.501C725.666 159.877 724.545 160.993 723.162 160.993Z" fill="#C65447"/>
<path d="M718.966 145.796C718.137 141.204 715.724 135.982 715.724 135.982C717.48 128.663 715.688 120.433 715.688 120.433C714.722 120.174 713.738 119.987 712.745 119.872C712.621 119.219 712.266 117.254 712.115 115.562C712.099 115.366 712.085 115.174 712.073 114.987C712.044 114.562 712.044 114.134 712.073 113.709L710.837 113.79L705.745 114.128L705.529 114.142C705.529 114.142 705.56 114.595 705.569 115.28C705.584 116.511 705.523 118.48 705.08 119.893C702.889 120.119 701.405 120.437 701.405 120.437C699.972 120.68 700.278 129.559 702.956 136.461C704.189 139.638 700.701 144.555 700.701 145.799C700.701 147.043 719.264 147.455 718.966 145.796Z" fill="#FFB27D"/>
<path d="M712.11 115.56C711.633 116.12 710.428 117.323 708.891 117.35C706.892 117.385 705.557 115.278 705.557 115.278C705.588 114.89 705.647 114.505 705.733 114.125L710.825 113.787C711.26 114.165 711.674 114.565 712.068 114.985C712.081 115.171 712.095 115.363 712.11 115.56Z" fill="#EF9E67"/>
<path d="M708.042 116.13C705.308 115.68 703.438 113.063 703.884 110.315L704.561 106.147C704.703 105.26 705.193 104.466 705.924 103.938C706.655 103.411 707.566 103.193 708.458 103.333L711.474 103.828C712.365 103.982 713.159 104.48 713.683 105.213C714.207 105.946 714.42 106.856 714.274 107.744L713.558 112.139C713.358 113.396 712.665 114.523 711.631 115.271C710.596 116.019 709.305 116.328 708.042 116.13Z" fill="#FFB27D"/>
<path d="M706.91 112.758C706.91 112.758 706.91 113.435 708.516 113.723C708.516 113.723 709.868 113.965 709.998 113.25C709.998 113.25 708.826 112.434 706.91 112.758Z" fill="white"/>
<path d="M695.16 154.013C695.16 154.013 698.549 146.129 701.653 144.588C704.756 143.047 717.113 144.416 718.968 145.797C720.822 147.178 723.196 154.013 723.196 154.013H695.16Z" fill="#22356B"/>
<path d="M698.25 154.012C698.25 154.012 699.459 149.283 702.148 149.077C704.837 148.871 708.427 151.371 709.702 150.698C710.978 150.025 713.415 148.336 715.675 148.767C717.936 149.197 721.336 154.012 721.336 154.012H698.25Z" fill="#1B2E59"/>
<path d="M718.538 169.875C718.487 176.97 718.211 183.735 718.211 183.735L714.486 184.054C714.486 184.054 713.178 178.277 711.435 171.959C711.294 171.459 711.205 170.942 711.091 170.427C710.016 165.587 708.959 160.572 708.457 157.427C707.23 149.699 710.309 149.28 710.986 149.19C711.662 149.1 715.87 147.401 717.818 154.847C718.451 157.266 718.58 163.696 718.538 169.875Z" fill="#FFB27D"/>
<path d="M711.436 171.959C711.321 171.452 711.206 170.941 711.092 170.426C710.017 165.586 708.96 160.571 708.458 157.426C708.458 157.426 711.816 170.534 716.532 170.709C719.649 170.827 714.965 171.51 711.436 171.959Z" fill="#EF9E67"/>
<path d="M718.54 169.873C718.512 173.902 718.409 177.822 718.327 180.46C718.265 182.468 718.213 183.734 718.213 183.734L714.275 184.155C714.275 184.155 712.855 178.332 711.492 170.814C712.056 170.954 713.29 170.994 715.671 170.534C716.487 170.377 717.437 170.162 718.54 169.873Z" fill="#E9F3FE"/>
<path d="M718.326 180.457C718.264 182.464 718.212 183.73 718.212 183.73L714.274 184.151C714.274 184.151 712.51 178.189 711.148 170.672C711.712 170.812 713.289 170.99 715.67 170.531C715.67 170.533 715.43 178.543 718.326 180.457Z" fill="#C7DCF2"/>
<path d="M718.845 185.733C718.874 185.887 718.898 186.03 718.917 186.154C718.928 186.222 718.925 186.292 718.909 186.359C718.892 186.427 718.862 186.49 718.82 186.545C718.778 186.601 718.725 186.647 718.665 186.682C718.605 186.717 718.538 186.739 718.469 186.748L714.684 187.202C714.549 187.219 714.413 187.182 714.306 187.099C714.199 187.016 714.129 186.895 714.112 186.761C714.013 185.975 714.046 185.178 714.207 184.402C714.224 184.326 714.258 184.254 714.307 184.193C714.356 184.132 714.418 184.082 714.489 184.049C716.3 183.208 717.555 183.488 718.013 183.648C718.074 183.669 718.131 183.702 718.179 183.745C718.227 183.788 718.267 183.841 718.294 183.899C718.553 184.486 718.738 185.102 718.845 185.733Z" fill="#35488B"/>
<path d="M718.134 183.797C718.134 183.797 717.58 183.096 716.294 183.108C715.922 183.111 715.556 183.206 715.229 183.384C714.902 183.562 714.624 183.817 714.42 184.128L714.231 184.341C714.259 184.293 714.889 182.918 716.293 182.902C716.686 182.885 717.076 182.968 717.428 183.143C717.779 183.319 718.08 183.58 718.301 183.903L718.134 183.797Z" fill="#35488B"/>
<path d="M718.845 185.732C718.874 185.886 718.898 186.029 718.917 186.153C718.928 186.221 718.925 186.291 718.909 186.359C718.892 186.426 718.862 186.489 718.82 186.545C718.778 186.6 718.725 186.646 718.665 186.681C718.605 186.716 718.538 186.739 718.469 186.747L714.684 187.202C714.549 187.218 714.413 187.181 714.306 187.098C714.199 187.016 714.129 186.894 714.112 186.76C714.081 186.519 714.063 186.278 714.058 186.035C714.058 186.035 714.412 186.865 716.71 186.557C718.1 186.374 718.64 185.999 718.845 185.732Z" fill="#22356B"/>
<path d="M704.367 184.452L701.267 183.622C701.267 183.622 701.201 178.266 701.211 172.041C701.211 171.459 701.211 170.868 701.211 170.274C701.232 165.086 701.312 159.599 701.535 156.26C701.588 155.46 701.669 154.745 701.771 154.105C702.662 148.51 705.217 148.743 705.829 148.799C706.508 148.863 710.987 148.149 711.232 155.847C711.315 158.441 710.545 165.309 708.435 171.334C706.41 177.133 704.367 184.452 704.367 184.452Z" fill="#FFB27D"/>
<path d="M701.208 172.044C701.208 171.463 701.208 170.872 701.208 170.278C701.229 165.09 701.309 159.603 701.532 156.264C701.585 155.464 701.666 154.749 701.769 154.109C701.769 154.352 702.169 169.787 706.233 172.07C708.846 173.531 704.62 172.781 701.208 172.044Z" fill="#EF9E67"/>
<path d="M704.367 184.451L701.105 184.068L700.274 183.972C700.274 183.972 701.186 177.215 701.215 170.273C702.526 170.806 703.909 171.139 705.319 171.262C706.377 171.328 707.439 171.301 708.492 171.182C706.912 177.831 704.367 184.451 704.367 184.451Z" fill="#E9F3FE"/>
<path d="M701.103 184.068L700.271 183.972C700.271 183.972 701.183 177.215 701.213 170.273C702.523 170.806 703.907 171.139 705.317 171.262C705.317 171.262 701.11 180.236 701.103 184.068Z" fill="#C7DCF2"/>
<path d="M704.611 186.266C704.623 186.423 704.63 186.568 704.634 186.697C704.637 186.766 704.625 186.835 704.601 186.9C704.576 186.965 704.539 187.024 704.491 187.074C704.443 187.124 704.386 187.164 704.322 187.192C704.258 187.22 704.189 187.234 704.119 187.235H700.306C700.17 187.235 700.04 187.182 699.944 187.088C699.847 186.993 699.792 186.865 699.79 186.73C699.787 186.487 699.797 186.244 699.821 186.003C699.869 185.456 699.983 184.918 700.161 184.399C700.186 184.325 700.227 184.258 700.282 184.204C700.337 184.149 700.404 184.107 700.478 184.082C702.375 183.455 703.588 183.88 704.028 184.097C704.086 184.125 704.139 184.164 704.182 184.212C704.225 184.261 704.259 184.317 704.28 184.378C704.467 184.991 704.578 185.626 704.611 186.266Z" fill="#35488B"/>
<path d="M704.126 184.259C704.126 184.259 703.658 183.496 702.38 183.36C702.01 183.319 701.635 183.369 701.289 183.507C700.943 183.645 700.637 183.866 700.398 184.151L700.187 184.34C700.221 184.295 701.007 183.004 702.403 183.154C702.795 183.183 703.173 183.312 703.501 183.527C703.83 183.743 704.098 184.038 704.28 184.385L704.126 184.259Z" fill="#35488B"/>
<path d="M704.611 186.266C704.623 186.423 704.63 186.568 704.634 186.697C704.637 186.766 704.625 186.835 704.601 186.9C704.576 186.965 704.539 187.024 704.491 187.074C704.443 187.124 704.386 187.165 704.322 187.192C704.258 187.22 704.189 187.234 704.119 187.235H700.306C700.17 187.235 700.04 187.182 699.944 187.088C699.847 186.993 699.792 186.865 699.79 186.73C699.787 186.487 699.797 186.245 699.821 186.003C699.821 186.003 700.076 186.869 702.396 186.834C703.797 186.816 704.376 186.506 704.611 186.266Z" fill="#22356B"/>
<path d="M724.547 139.797L719.38 139.881C718.986 138.978 718.295 135.968 717.613 134.151C717.867 135.261 718.116 136.407 718.349 137.532C719.26 141.903 719.951 146.015 719.844 146.895C719.599 148.9 711.802 147.997 709.793 147.515C707.783 147.033 703.214 148.136 699.558 148.066C697.457 148.027 698.101 142.144 699.027 137.159C699.248 135.965 699.486 134.819 699.707 133.821C698.526 136.182 697.989 139.094 697.703 139.881C697.703 139.881 692.657 139.553 692.655 139.54C692.485 138.644 694.384 124.453 698.25 121.552C699.025 120.936 699.919 120.484 700.876 120.225C701.833 119.965 702.834 119.903 703.816 120.043C703.816 120.043 705.084 122.313 708.748 122.484C709.803 122.543 710.858 122.362 711.832 121.954C712.805 121.546 713.673 120.922 714.367 120.13C714.367 120.13 717.43 120.206 718.667 121.552C719.905 122.898 722.641 127.725 724.547 139.797Z" fill="#C65447"/>
<path d="M719.845 146.89C719.6 148.895 711.803 147.992 709.794 147.509C707.784 147.027 703.215 148.13 699.559 148.06C697.458 148.021 698.102 142.138 699.028 137.154C699.028 137.154 702.989 144.125 707.928 144.077C712.866 144.029 718.35 137.527 718.35 137.527C719.262 141.9 719.952 146.009 719.845 146.89Z" fill="#B5493F"/>
<path d="M705.364 118.558C705.364 118.558 707.082 121.95 708.756 122.484C708.756 122.484 706.375 123.388 702.906 119.973C703.155 119.544 703.513 119.187 703.944 118.939C704.376 118.69 704.865 118.559 705.364 118.558Z" fill="#E6F1FF"/>
<path d="M712.584 118.558C712.584 118.558 710.434 121.95 708.762 122.484C708.762 122.484 711.572 123.388 715.042 119.973C714.792 119.544 714.434 119.187 714.003 118.939C713.571 118.691 713.082 118.56 712.584 118.558Z" fill="#E6F1FF"/>
<path d="M708.514 122.469C708.514 122.415 708.53 122.363 708.561 122.318C708.591 122.274 708.634 122.239 708.684 122.219C708.734 122.198 708.789 122.193 708.842 122.204C708.895 122.215 708.943 122.241 708.981 122.279C709.019 122.317 709.045 122.366 709.056 122.419C709.066 122.472 709.06 122.526 709.039 122.576C709.018 122.625 708.983 122.668 708.938 122.697C708.893 122.727 708.84 122.743 708.786 122.742C708.75 122.742 708.714 122.735 708.681 122.721C708.648 122.707 708.618 122.687 708.593 122.662C708.568 122.636 708.548 122.606 708.534 122.573C708.52 122.54 708.514 122.505 708.514 122.469Z" fill="#35488B"/>
<path d="M708.235 129.443C708.236 129.341 708.267 129.241 708.325 129.156C708.382 129.072 708.464 129.006 708.559 128.968C708.654 128.929 708.758 128.92 708.859 128.94C708.959 128.96 709.052 129.01 709.124 129.083C709.196 129.155 709.245 129.247 709.265 129.348C709.285 129.448 709.274 129.552 709.235 129.646C709.195 129.74 709.129 129.821 709.043 129.877C708.958 129.934 708.858 129.964 708.755 129.964C708.616 129.964 708.484 129.908 708.386 129.81C708.289 129.713 708.234 129.58 708.235 129.443Z" fill="#A53D38"/>
<path d="M708.235 137.824C708.236 137.722 708.267 137.622 708.325 137.538C708.383 137.454 708.465 137.388 708.56 137.35C708.655 137.312 708.759 137.302 708.86 137.323C708.96 137.343 709.052 137.393 709.125 137.466C709.197 137.538 709.246 137.63 709.265 137.731C709.285 137.831 709.274 137.934 709.235 138.029C709.195 138.123 709.129 138.203 709.043 138.26C708.958 138.317 708.858 138.347 708.755 138.347C708.686 138.346 708.618 138.333 708.555 138.306C708.492 138.28 708.434 138.241 708.386 138.192C708.338 138.144 708.3 138.086 708.274 138.023C708.248 137.96 708.234 137.892 708.235 137.824Z" fill="#A53D38"/>
<path d="M723.636 153.507L723.65 152.048C723.65 152.048 725.654 139.664 724.266 139.28C722.878 138.896 720.266 140.215 720.266 140.215L721.088 152.048C721.074 152.32 721.034 152.59 720.968 152.855C720.933 152.855 720.898 152.869 720.864 152.878C719.501 153.268 720.32 156.085 721.336 156.134C722.082 156.17 723.046 155.047 723.7 154.662C723.983 154.494 723.9 153.706 723.636 153.507Z" fill="#FFB27D"/>
<path d="M719.381 139.875C719.381 139.875 719.058 141.621 719.854 141.876C720.65 142.131 724.718 142.259 724.971 141.876C725.225 141.493 724.873 138.563 724.267 138.347C723.661 138.131 719.76 138.932 719.381 139.875Z" fill="#B5493F"/>
<path d="M696.221 152.878C696.187 152.868 696.152 152.861 696.118 152.854C696.052 152.59 696.012 152.32 695.998 152.048L696.82 140.215C696.82 140.215 694.207 138.897 692.819 139.279C691.431 139.662 693.436 152.048 693.436 152.048L693.449 153.506C693.185 153.705 693.102 154.488 693.387 154.661C694.039 155.047 695.003 156.17 695.749 156.134C696.765 156.085 697.584 153.268 696.221 152.878Z" fill="#FFB27D"/>
<path d="M697.706 139.875C697.706 139.875 698.029 141.621 697.232 141.876C696.436 142.131 692.369 142.259 692.115 141.876C691.861 141.493 692.215 138.563 692.82 138.347C693.424 138.131 697.328 138.932 697.706 139.875Z" fill="#B5493F"/>
<path d="M710.509 104.353C710.509 104.353 710.819 107.157 712.623 108.227C712.623 108.227 711.985 106.536 712.42 105.832C712.42 105.832 712.784 108.996 713.863 110.241C713.863 110.241 716.665 104.266 711.639 103.116C706.614 101.967 704.139 104.308 703.795 106.225C703.592 107.397 703.652 108.6 703.971 109.747C703.971 109.747 705.106 106.278 707.495 105.605C709.883 104.932 710.509 104.353 710.509 104.353Z" fill="#1B2E59"/>
<path d="M989.83 79.0146C989.83 79.0146 981.206 96.3693 980.105 99.1468C979.683 100.215 964.356 95.4818 964.356 95.4818C964.356 95.4818 963.052 94.3462 962.934 93.0759C962.904 92.7534 962.52 92.4029 961.957 92.0678L957.367 93.3857C957.824 94.534 958.396 95.6585 958.717 95.9473C959.384 96.5516 963.368 98.3014 963.368 98.3014C965.829 100.716 981.136 106.927 982.503 106.188C983.939 105.411 990.578 93.3885 993.149 90.2143C995.719 87.04 994.7 76.6339 989.83 79.0146Z" fill="#FFB27D"/>
<path d="M946.008 77.4211L941.369 78.6647L950.077 95.1529L961.211 92.4568L970.523 89.1072L964.17 72.2391L955.176 79.1484L946.008 77.4211Z" fill="#A03732"/>
<path d="M961.213 92.1681L954.871 76.9025C954.871 76.9025 947.156 74.139 942.187 77.4395L950.289 93.7132C950.289 93.7132 954.643 90.4688 961.213 92.1681Z" fill="#E9F3FE"/>
<path d="M964.649 70.9925C958.157 70.6083 954.872 76.9022 954.872 76.9022L961.214 92.1678C963.199 88.7033 971.296 88.4173 971.296 88.4173L964.649 70.9925Z" fill="#C7DCF2"/>
<path d="M970.403 178.634C970.403 178.634 971.319 182.981 970.403 184.173C969.487 185.364 966.988 185.648 967.044 187.355H979.15C979.15 187.355 978.739 184.297 977.459 182.995C976.18 181.692 974.91 174.089 974.91 174.089L970.403 178.634Z" fill="#163560"/>
<path d="M987.239 178.634C987.239 178.634 988.157 182.981 987.239 184.173C986.322 185.364 983.826 185.648 983.882 187.355H995.988C995.988 187.355 995.577 184.297 994.297 182.995C993.017 181.692 991.748 174.089 991.748 174.089L987.239 178.634Z" fill="#163560"/>
<path d="M1011.95 141.331C1011.1 141.511 1010.25 141.64 1009.39 141.718C1005.02 142.192 996.833 142.559 988.962 142.64C986.165 142.671 983.408 142.667 980.873 142.621H980.84C978.639 142.579 976.612 142.504 974.865 142.395C972.937 142.276 971.364 142.106 970.318 141.887C969.556 141.73 969.071 141.545 968.923 141.327C967.67 139.504 964.554 135.87 964.952 133.105C965.029 132.525 965.281 131.983 965.675 131.549C965.675 131.549 967.814 130.737 971.171 129.586C977.836 127.319 989.312 123.746 998.501 122.59C1003.93 121.905 1008.55 122.062 1010.92 123.829C1019.35 130.107 1017.31 140.019 1011.95 141.331Z" fill="#B23636"/>
<path d="M993.126 176.207C991.803 179.088 987.432 179.23 987.432 179.23C986.437 176.956 985.513 174.786 984.66 172.722C978.721 158.376 976 148.896 974.905 142.66C974.889 142.57 974.875 142.486 974.861 142.398C973.16 132.432 975.684 130.916 975.684 130.916L975.836 130.886C977.914 130.451 980.081 130.85 981.864 131.996C984.875 133.897 987.162 137.744 988.877 142.413C988.902 142.488 988.931 142.565 988.959 142.643C991.164 148.744 992.402 156.204 993.005 162.552C993.674 169.584 993.563 175.254 993.126 176.207Z" fill="#892828"/>
<path d="M1007.96 76.0691C1007.96 76.0691 1008.37 76.1153 1008.98 76.2093C1010.45 76.4532 1013.1 77.0183 1014.06 78.0236C1015.42 79.4452 1022.57 98.5946 1022.2 101.372C1021.82 104.15 1013.82 108.416 1011.1 108.744L1007.96 76.0621V76.0691Z" fill="#0052B4"/>
<path d="M998.323 78.9266C998.295 78.9504 998.345 83.0458 1001.87 82.1653C1004.19 81.5877 1008.65 77.7236 1007.8 75.8056C1007.4 74.8943 1005.13 72.7743 1003.64 67.1913L1003.24 67.3918L996.472 70.7722C996.472 70.7722 997.249 72.9861 997.831 75.1186C998.326 76.8992 998.678 78.6237 998.323 78.9266Z" fill="#F4A269"/>
<path d="M993.578 72.2174C993.578 72.2174 1003.75 74.5224 1005.08 68.1332C1006.42 61.744 1008.63 57.7398 1002.19 55.9942C995.751 54.2486 993.978 56.4148 993.015 58.4436C992.053 60.4724 990.965 71.4463 993.578 72.2174Z" fill="#FFB27D"/>
<path d="M1014.06 131.986C1014.06 131.986 1007.84 137.079 1008.21 140.602C1008.57 144.125 1003.29 139.901 1003.29 139.901L1005.7 131.989L1014.06 131.986Z" fill="#A03732"/>
<path d="M1001.5 68.3595C1003.93 69.1909 1007.65 64.3917 1008.71 61.5946C1010.02 58.1693 1007.02 51.3722 999.199 52.3648C997.622 52.5581 996.11 53.104 994.775 53.9618C993.063 55.0834 988.508 57.9871 995.87 61.0856C998.634 62.2493 999.375 67.6346 1001.5 68.3595Z" fill="#1C468A"/>
<path d="M1002.41 141.331C1000.59 141.778 995.222 142.172 988.88 142.414C986.317 142.51 983.59 142.585 980.873 142.624C980.862 142.625 980.851 142.625 980.84 142.624C978.837 142.653 976.836 142.669 974.908 142.66C973.62 142.66 972.371 142.643 971.165 142.618C971.647 143.953 972.083 145.351 972.476 146.789C975.871 159.217 976.084 174.567 975.335 176.192C974.011 179.073 969.64 179.213 969.64 179.213C965.536 169.82 962.677 162.213 960.715 156.064C953.874 134.642 957.896 130.903 957.896 130.903C957.896 130.903 961.42 128.722 966.626 127.389C976.304 124.912 990.955 120.818 998.513 122.6C999.66 122.867 1000.63 123.274 1001.4 123.84C1003.74 125.589 1005.28 127.626 1006.15 129.667C1008.42 134.969 1006.28 140.385 1002.41 141.331Z" fill="#A03732"/>
<path d="M1016.68 130.036C1016.14 130.784 1015.24 131.438 1014.06 131.986C1005.64 135.933 985.475 127.2 986.437 121.355C986.776 119.296 988.371 119.309 989.615 115.948C990.582 113.338 991.277 110.892 991.245 108.501C991.235 107.474 991.076 106.454 990.773 105.472C990.014 103.033 989.318 99.1096 988.876 94.9286C988.123 87.8076 988.69 80.5898 990.382 78.0577C990.622 77.7001 1004.54 73.7842 1015.34 77.3188C1015.34 77.3188 1016.19 89.9275 1013.72 103.084C1013.39 104.838 1013.55 106.65 1014.18 108.321C1016.14 113.531 1020.01 125.356 1016.68 130.036Z" fill="#0052B4"/>
<path d="M995.372 105.653C996.827 101.084 997.249 95.4183 994.288 89.5633C992.152 90.9905 990.311 92.8125 988.866 94.9304C989.309 99.1114 990.005 103.034 990.763 105.474C991.074 106.481 991.233 107.529 991.235 108.582C991.235 108.643 991.235 108.701 991.235 108.762C991.235 108.902 991.235 109.035 991.225 109.173C991.225 109.231 991.225 109.29 991.225 109.348C991.215 109.527 991.203 109.708 991.184 109.888C991.184 109.946 991.172 110.005 991.166 110.063C991.152 110.203 991.135 110.331 991.117 110.465C991.108 110.534 991.098 110.605 991.087 110.673C991.063 110.837 991.036 110.999 991.008 111.163C990.997 111.224 990.984 111.284 990.973 111.346C990.945 111.486 990.915 111.642 990.883 111.789C990.867 111.863 990.85 111.937 990.833 112.012C990.802 112.152 990.771 112.278 990.738 112.413C990.722 112.474 990.708 112.535 990.693 112.596C990.646 112.777 990.597 112.958 990.552 113.14C990.53 113.215 990.509 113.289 990.487 113.365C990.45 113.492 990.411 113.621 990.371 113.75L990.305 113.968C990.247 114.153 990.187 114.338 990.125 114.528L990.061 114.715C990.012 114.855 989.962 115.005 989.91 115.151L989.838 115.356C989.768 115.553 989.698 115.752 989.621 115.954C988.377 119.319 985.385 121.03 985.393 122.725C985.406 127.108 1005.65 135.939 1014.08 131.992C994.423 135.019 995.369 105.777 995.372 105.653Z" fill="#4395F2"/>
<path d="M991.885 57.9826C991.885 57.9826 992.946 65.6505 998.864 68.4378C998.864 68.4378 995 59.5543 996.957 57.8592C998.915 56.1641 991.885 57.9826 991.885 57.9826Z" fill="#1C468A"/>
<path d="M997.722 64.474C997.722 64.474 998.736 62.3962 999.679 62.7916C1000.62 63.187 999.317 66.5463 998.693 66.5084C998.068 66.4706 997.722 64.474 997.722 64.474Z" fill="#FFB27D"/>
<path d="M996.536 90.0932C994.959 91.2542 992.243 97.4302 988.45 101.775C988.445 101.785 988.438 101.793 988.431 101.802C987.738 102.605 986.978 103.347 986.157 104.021C979.856 109.107 975.06 107.73 975.06 107.73C971.857 105.953 970.832 102.286 970.524 99.7969C970.413 98.9534 970.372 98.1023 970.401 97.2522C970.401 97.2522 978.253 98.6921 979.061 98.5827C979.87 98.4734 987.864 79.8512 988.951 78.7408C991.302 76.3475 1000.94 75.7502 1000.94 75.7502C1003.49 74.6678 998.414 88.7066 996.536 90.0932Z" fill="#0052B4"/>
<path d="M988.452 101.776C988.446 101.785 988.44 101.794 988.432 101.803C987.74 102.606 986.979 103.348 986.159 104.022C979.858 109.107 975.062 107.73 975.062 107.73C971.859 105.954 970.834 102.286 970.525 99.7976C971.543 100.773 978.88 107.269 988.452 101.776Z" fill="#4395F2"/>
<path d="M1022.83 76.8644C1018.5 73.6929 1013.93 69.8317 1014.86 66.5144C1017.01 58.8255 1010.7 49.4962 1004.15 52.247C1000.62 53.7248 997.769 73.034 1002.62 78.3478C1002.19 77.2766 1001.72 75.3824 1001.52 72.0175C1001.55 72.3498 1002 76.5994 1003.38 79.0278C1010.45 88.3851 997.717 88.4889 1002.86 96.9895C1002.86 96.9895 1003.3 99.9339 1014.95 96.7189C1017.01 96.1602 1018.85 95.0048 1020.24 93.4003C1021.21 92.2702 1022.1 90.8976 1022.21 89.5656C1022.17 91.5036 1021.57 93.3888 1020.48 94.9986C1024.03 93.7368 1026.35 90.1615 1026.83 86.0591C1027.19 82.99 1026.47 79.5409 1022.83 76.8644Z" fill="#1C468A"/>
<path d="M1021.77 144.124H971.648C971.648 144.124 972.815 139.244 1001.84 139.97C1004.15 140.029 1006.19 140.126 1007.99 140.251C1022.25 141.257 1021.77 144.124 1021.77 144.124Z" fill="#E5BD9E"/>
<path d="M983.597 187.96C989.427 161.882 987.927 145.885 987.92 145.684C987.906 145.282 988.743 144.917 989.189 144.905C989.634 144.892 991.658 144.787 991.89 145.13C992.195 145.58 993.37 165.293 984.682 187.96H983.597Z" fill="#A06B47"/>
<path d="M969.77 187.96C975.599 161.882 974.101 145.885 974.094 145.684C974.078 145.282 974.916 144.917 975.362 144.905C975.809 144.892 977.83 144.787 978.063 145.13C978.368 145.58 979.542 165.293 970.854 187.96H969.77Z" fill="#A06B47"/>
<path d="M1022.53 144.904C1022.53 145.109 1022.45 145.306 1022.3 145.452C1022.16 145.599 1021.96 145.682 1021.75 145.685H971.357C971.255 145.685 971.155 145.665 971.062 145.625C970.968 145.586 970.884 145.528 970.814 145.455C970.706 145.346 970.633 145.208 970.603 145.059C970.573 144.909 970.588 144.754 970.646 144.613C970.703 144.471 970.802 144.35 970.928 144.263C971.054 144.177 971.203 144.129 971.357 144.126H1021.75C1021.86 144.126 1021.96 144.147 1022.05 144.186C1022.14 144.226 1022.23 144.283 1022.3 144.356C1022.44 144.501 1022.53 144.698 1022.53 144.904Z" fill="#CE9A78"/>
<path d="M1009.54 144.124H971.643C971.643 144.124 972.813 139.244 1001.93 139.97C1004.24 140.029 1006.29 140.126 1008.1 140.251C1008.01 140.86 1007.86 142.846 1009.54 144.124Z" fill="#D6A685"/>
<path d="M1022.53 144.904C1022.52 145.111 1022.44 145.309 1022.29 145.455C1022.15 145.601 1021.95 145.684 1021.74 145.685H994.849C994.746 145.685 994.644 145.665 994.549 145.625C994.454 145.586 994.368 145.528 994.296 145.455C994.186 145.346 994.111 145.208 994.08 145.056C994.049 144.905 994.065 144.748 994.124 144.605C994.183 144.463 994.284 144.341 994.413 144.256C994.542 144.17 994.694 144.125 994.849 144.126H1021.74C1021.95 144.126 1022.15 144.209 1022.29 144.356C1022.37 144.427 1022.43 144.513 1022.46 144.607C1022.5 144.701 1022.53 144.802 1022.53 144.904Z" fill="#7C4F31"/>
<path d="M1020.96 145H1020.98C1021.43 145 1021.79 144.663 1021.78 144.262C1021.32 115.674 1032.32 93.6929 1032.43 93.4742C1032.62 93.1083 1032.59 92.2923 1031.4 92.1871C1030.36 92.0974 1029.72 92.3273 1029.53 92.6905C1029.51 92.7452 1027.05 97.9762 1024.32 107.069C1021.81 115.451 1019.9 129.178 1020.14 144.283C1020.15 144.682 1020.52 145 1020.96 145Z" fill="#7C4F31"/>
<path d="M996.432 145H996.443C996.894 145 997.253 144.663 997.248 144.262C996.79 115.674 1007.79 93.6929 1007.9 93.4742C1008.09 93.1083 1008.05 92.2923 1006.87 92.1871C1005.83 92.0974 1005.19 92.3273 1005 92.6905C1004.97 92.7452 1002.52 97.9762 999.787 107.069C997.274 115.451 995.368 129.178 995.61 144.283C995.621 144.682 995.986 145 996.432 145Z" fill="#7C4F31"/>
<path d="M1028.23 102.255C1028.41 102.261 1028.59 102.205 1028.74 102.094C1028.89 101.984 1028.99 101.826 1029.03 101.649C1029.11 101.253 1028.81 100.878 1028.37 100.808C1027.66 100.7 1010.98 98.197 1003.51 100.285C1003.08 100.405 1002.84 100.813 1002.97 101.196C1003.05 101.388 1003.2 101.544 1003.39 101.632C1003.58 101.72 1003.8 101.735 1003.99 101.673C1011.09 99.6887 1027.92 102.215 1028.09 102.24C1028.14 102.248 1028.18 102.253 1028.23 102.255Z" fill="#7C4F31"/>
<path d="M1026.32 107.069C1026.51 107.075 1026.69 107.019 1026.83 106.908C1026.98 106.798 1027.08 106.641 1027.13 106.463C1027.2 106.068 1026.91 105.692 1026.46 105.622C1025.76 105.514 1009.07 103.01 1001.6 105.099C1001.17 105.219 1000.93 105.627 1001.07 106.011C1001.15 106.203 1001.3 106.359 1001.49 106.447C1001.67 106.535 1001.89 106.549 1002.09 106.487C1009.19 104.501 1026.02 107.029 1026.19 107.048C1026.23 107.058 1026.28 107.065 1026.32 107.069Z" fill="#7C4F31"/>
<path d="M1026.02 187.96C1020.19 161.882 1021.69 145.885 1021.7 145.684C1021.71 145.282 1020.87 144.917 1020.43 144.905C1019.98 144.892 1017.96 144.787 1017.73 145.13C1017.42 145.58 1016.25 165.293 1024.94 187.96H1026.02Z" fill="#7C4F31"/>
<path d="M1003.29 187.961C997.466 161.567 998.964 145.372 998.971 145.167C998.987 144.761 998.149 144.392 997.703 144.379C997.256 144.367 995.235 144.259 995.001 144.606C994.697 145.062 993.523 165.018 1002.21 187.961H1003.29Z" fill="#7C4F31"/>
<path d="M950.722 93.4303L951.066 94.144C951.066 94.144 958.766 92.0619 961.213 92.1671C961.211 92.1671 955.75 90.3556 950.722 93.4303Z" fill="#C7DCF2"/>
<path d="M961.213 92.1677L970.035 88.9149L969.882 88.5279C969.882 88.5279 963.103 88.9149 961.213 92.1677Z" fill="#ADC7E0"/>
<path d="M963.027 93.5292C963.027 93.5292 962.869 91.1947 961.487 90.3535C960.875 90.0254 960.375 89.7759 960.037 89.6146C959.973 89.5856 959.903 89.5736 959.833 89.5801C959.764 89.5865 959.697 89.611 959.64 89.6512C959.583 89.6914 959.537 89.7459 959.508 89.8091C959.479 89.8723 959.467 89.9421 959.473 90.0114C959.511 90.3324 959.66 90.63 959.896 90.8526C960.6 91.5621 960.784 92.7426 960.784 92.7426L963.027 93.5292Z" fill="#FFB27D"/>
</svg>
